<svg id="Layer_1" data-name="Layer 1" xmlns="http://www.w3.org/2000/svg" xmlns:xlink="http://www.w3.org/1999/xlink" width="320.811" height="116.254" viewBox="0 0 320.811 116.254">
  <defs>
    <linearGradient id="linear-gradient" x1="0.213" y1="0.91" x2="0.787" y2="0.09" gradientUnits="objectBoundingBox">
      <stop offset="0" stop-color="#0db14b"/>
      <stop offset="0.34" stop-color="#007534"/>
      <stop offset="0.7" stop-color="#002b60"/>
    </linearGradient>
    <linearGradient id="linear-gradient-2" x1="0.5" x2="0.5" y2="0.781" gradientUnits="objectBoundingBox">
      <stop offset="0" stop-color="#fff"/>
      <stop offset="0.3" stop-color="#fff"/>
      <stop offset="0.82" stop-color="#fd0"/>
      <stop offset="1" stop-color="#fd0"/>
    </linearGradient>
    <radialGradient id="radial-gradient" cx="0.445" cy="0.526" r="0.44" gradientTransform="translate(0.002)" gradientUnits="objectBoundingBox">
      <stop offset="0.1" stop-color="#00aeef"/>
      <stop offset="1" stop-color="#002b60"/>
    </radialGradient>
  </defs>
  <g id="Grupo_7" data-name="Grupo 7">
    <g id="Grupo_3" data-name="Grupo 3" transform="translate(131.247 58.403)">
      <g id="Grupo_1" data-name="Grupo 1" transform="translate(0.004)">
        <path id="Caminho_1" data-name="Caminho 1" d="M454.015,150.32a3.736,3.736,0,0,0,2.743,1.83c-.307.831.221,3.065-1.068,2.436.427,4.853,1.675,8.886,1.675,14.166H433.3c-1.962,0-6.337.462-7.615-.307-2.957-1.776-.455-12.06-3.2-14.317a26.139,26.139,0,0,1,1.523-2.588c1.76,3.924-.214,11.586,2.285,14.776h12.942c-1.694-1.558-4.091-3.726-8.221-3.353,3.065-6.049,9.231,1.309,12.184,3.353h7.157c.229-2.215-.7-3.271-1.523-4.417.086-.979.746-1.391.913-2.288,1.577,1.216,1.678,3.909,1.675,6.7h4.417c-.408-4.06-1.115-7.821-1.523-11.881.031-.641-.684-.536-.917-.913a15.217,15.217,0,0,1,.61-3.2Z" transform="translate(-389.594 -150.32)" fill="#fff" fill-rule="evenodd"/>
        <path id="Caminho_2" data-name="Caminho 2" d="M625.5,150.32a3.736,3.736,0,0,0,2.743,1.83c-.109.855-.194,1.733-.307,2.588-.431.124-.392-.214-.762-.152.427,4.853,1.675,8.886,1.675,14.166-4.215-.3-10.063,1.026-11.726-1.83a9.713,9.713,0,0,1-5.785,1.83,8.474,8.474,0,0,1-13.249,4.872c.746-.812,1.857.062,2.739.152,6.4.668,12.518-6.749,7.157-11.267a11.132,11.132,0,0,0,.761-2.133c1.725,1.068,2.518,3.065,2.436,5.941a9.733,9.733,0,0,0,4.872-1.068,1.8,1.8,0,0,0-2.894-.913c.058-1.173.012-2.347.61-2.895,1.438-1.317,6.846-.785,6.854,1.523,0,1.123-1.041,1.585-1.982,2.588,1.671,1.476,5.832.466,8.68.765-.408-4.06-1.111-7.821-1.523-11.881.031-.641-.68-.536-.913-.913a14.98,14.98,0,0,1,.606-3.2Z" transform="translate(-496.969 -150.32)" fill="#fff" fill-rule="evenodd"/>
        <path id="Caminho_3" data-name="Caminho 3" d="M349.562,151.1c.979.085,1.391.742,2.285.913-.039.979-.75,1.282-.913,2.133a8.767,8.767,0,0,0-2.133-1.068C348.839,152.2,349.441,151.893,349.562,151.1Z" transform="translate(-344.534 -150.797)" fill="#fff" fill-rule="evenodd"/>
        <path id="Caminho_4" data-name="Caminho 4" d="M558.088,151.1c.979.085,1.391.742,2.285.913-.039.979-.75,1.282-.913,2.133a8.811,8.811,0,0,0-2.129-1.068c.035-.874.641-1.185.758-1.978Z" transform="translate(-472.045 -150.797)" fill="#fff" fill-rule="evenodd"/>
        <path id="Caminho_5" data-name="Caminho 5" d="M518.68,153.84c.35,5.175,3.221,13.451-.151,17.212a37.181,37.181,0,0,0-.458-9.293c-.225-1.865-.905-4.006-.761-5.327C517.4,155.619,518.4,154.415,518.68,153.84Z" transform="translate(-447.561 -152.472)" fill="#fff" fill-rule="evenodd"/>
        <path id="Caminho_6" data-name="Caminho 6" d="M683.7,153.84c.354,5.175,3.225,13.451-.152,17.212a37.184,37.184,0,0,0-.458-9.293c-.225-1.865-.9-4.006-.762-5.327C682.42,155.619,683.422,154.415,683.7,153.84Z" transform="translate(-548.469 -152.472)" fill="#fff" fill-rule="evenodd"/>
        <path id="Caminho_7" data-name="Caminho 7" d="M341.331,154.63c.979.085,1.387.742,2.285.913a4.922,4.922,0,0,1-.913,1.978c-.831-.183-1.3-.73-2.133-.913C340.609,155.733,341.211,155.423,341.331,154.63Z" transform="translate(-339.502 -152.955)" fill="#fff" fill-rule="evenodd"/>
        <path id="Caminho_8" data-name="Caminho 8" d="M549.852,154.63c.979.085,1.387.742,2.284.913a4.922,4.922,0,0,1-.913,1.978c-.831-.183-1.3-.73-2.133-.913C549.129,155.733,549.731,155.423,549.852,154.63Z" transform="translate(-467.007 -152.955)" fill="#fff" fill-rule="evenodd"/>
        <path id="Caminho_9" data-name="Caminho 9" d="M582.382,155.41c.979.089,1.391.746,2.288.917-.066.9-.633,1.3-.917,1.978-.835-.183-1.3-.73-2.133-.913.035-.874.641-1.185.762-1.981Z" transform="translate(-486.898 -153.432)" fill="#fff" fill-rule="evenodd"/>
        <path id="Caminho_10" data-name="Caminho 10" d="M489.1,158.15c.979.085,1.387.742,2.284.917-.039.975-.75,1.278-.913,2.133a8.91,8.91,0,0,0-2.133-1.068C488.379,159.257,488.981,158.946,489.1,158.15Z" transform="translate(-429.86 -155.108)" fill="#fff" fill-rule="evenodd"/>
        <path id="Caminho_11" data-name="Caminho 11" d="M641.565,161.29c.979.089,1.387.742,2.284.913a4.875,4.875,0,0,1-.917,1.978c-.831-.179-1.3-.73-2.133-.913.039-.874.641-1.185.761-1.978Z" transform="translate(-523.085 -157.028)" fill="#fff" fill-rule="evenodd"/>
        <path id="Caminho_12" data-name="Caminho 12" d="M480.872,161.68c.979.089,1.391.746,2.285.913a4.938,4.938,0,0,1-.913,1.981c-.831-.183-1.3-.73-2.133-.913C480.149,162.787,480.751,162.476,480.872,161.68Z" transform="translate(-424.827 -157.266)" fill="#fff" fill-rule="evenodd"/>
        <path id="Caminho_13" data-name="Caminho 13" d="M344.064,165.6c1.3,2.914.94,7.487,2.588,10.051h8.225c.233-2.215-.7-3.271-1.523-4.418.089-.979.746-1.391.913-2.288,2.032,1.574,1.624,5.587,1.675,9.138-3.209-.089-6.787.186-9.748-.152a9.19,9.19,0,0,1-1.978-4.721c-.614,1.539-4.282,1.919-6.4.913.629-3.124,3.357-4.153,5.785-5.478a2.989,2.989,0,0,1,.455-3.046Zm-.606,4.721c-1.123.6-2.448,1-2.895,2.285,1.286.346,3.065.218,3.5-.762C343.776,171.42,344.153,170.332,343.457,170.321Z" transform="translate(-337.82 -159.663)" fill="#fff" fill-rule="evenodd"/>
        <path id="Caminho_14" data-name="Caminho 14" d="M552.587,165.6c1.3,2.914.94,7.487,2.588,10.051h8.683a3.019,3.019,0,0,0-.155-2.288c-1.908.4-3.547.882-4.414-.458-1.3-2,.622-6.189,2.436-6.244,3.524-.1,3.578,7.2,3.5,11.423-3.462-.093-7.3.19-10.51-.152a9.193,9.193,0,0,1-1.982-4.721c-.61,1.539-4.285,1.919-6.4.913.633-3.124,3.357-4.153,5.789-5.478A2.981,2.981,0,0,1,552.587,165.6Zm7.767,5.482c.625.521,2.284.4,2.588-.307C562.666,169.147,559.449,168.258,560.354,171.082Zm-8.377-.762c-1.123.6-2.448,1-2.894,2.285,1.286.346,3.065.218,3.5-.762C552.3,171.42,552.673,170.332,551.977,170.321Z" transform="translate(-465.325 -159.663)" fill="#fff" fill-rule="evenodd"/>
        <path id="Caminho_15" data-name="Caminho 15" d="M398.267,176.19c2.487,1.48,3.291,6.811,2.133,9.9-.925,2.463-4.5,5.02-6.547,5.179-2.238.171-4.289-1.076-6.244-1.826.8-.785,1.962.066,2.894.152,6.294.583,12.343-6.78,7-11.267a11.13,11.13,0,0,0,.762-2.133Z" transform="translate(-368.265 -166.139)" fill="#fff" fill-rule="evenodd"/>
        <path id="Caminho_16" data-name="Caminho 16" d="M376.6,202.45c.979.085,1.391.742,2.288.913-.043.975-.75,1.282-.917,2.129a8.692,8.692,0,0,0-2.133-1.065c.039-.874.641-1.185.762-1.978Z" transform="translate(-361.068 -182.196)" fill="#fff" fill-rule="evenodd"/>
        <path id="Caminho_17" data-name="Caminho 17" d="M452.4,202.45a8.761,8.761,0,0,0,2.133,1.065c-.039.874-.641,1.185-.762,1.978-.979-.085-1.387-.742-2.285-.913C451.521,203.6,452.283,203.344,452.4,202.45Z" transform="translate(-407.327 -182.196)" fill="#fff" fill-rule="evenodd"/>
        <path id="Caminho_18" data-name="Caminho 18" d="M368.365,205.98c.979.085,1.387.746,2.284.913a4.916,4.916,0,0,1-.917,1.981c-.831-.183-1.3-.73-2.133-.913.039-.874.641-1.185.761-1.981Z" transform="translate(-356.03 -184.355)" fill="#fff" fill-rule="evenodd"/>
      </g>
      <g id="Grupo_2" data-name="Grupo 2" transform="translate(0 26.563)">
        <path id="Caminho_19" data-name="Caminho 19" d="M358.553,218.69a3.712,3.712,0,0,0,2.724,1.818c-.1.851-.194,1.721-.3,2.572-.427.128-.392-.214-.758-.148.474,3.967,1.123,7.759,1.663,11.656h6.057c.229-2.2-.688-3.248-1.511-4.39.085-.971.738-1.379.905-2.269,2.02,1.562,1.612,5.552,1.663,9.08-7.568-.1-15.537.2-22.857-.152a8.932,8.932,0,0,1-1.966-4.845c-.777,2.032-4.282,1.869-6.36,1.061.629-3.1,3.337-4.13,5.754-5.447-.5-1.049-.229-2.626.758-3.027.672,3.411.824,7.351,2.269,9.989h8.178c.229-2.2-.692-3.248-1.515-4.39.089-.971.738-1.379.909-2.269,1.57,1.2,1.667,3.881,1.667,6.659h4.542c-.4-4.033-1.107-7.774-1.515-11.807.031-.637-.676-.532-.909-.905a15.425,15.425,0,0,1,.6-3.182Zm-15.137,10.6c-1.115.6-2.432,1-2.875,2.269,1.278.342,3.05.218,3.481-.754C343.735,230.385,344.112,229.3,343.416,229.289Z" transform="translate(-337.81 -218.69)" fill="#fff" fill-rule="evenodd"/>
        <path id="Caminho_20" data-name="Caminho 20" d="M495.887,218.69a3.7,3.7,0,0,0,2.724,1.818c-.109.851-.194,1.721-.3,2.572-.427.128-.392-.214-.754-.148.427,4.822,1.667,8.827,1.667,14.076H486.2a8.426,8.426,0,0,1-13.171,4.845c.746-.812,1.853.058,2.727.152,6.364.664,12.444-6.706,7.114-11.2a11.28,11.28,0,0,0,.758-2.121c1.713,1.061,2.5,3.046,2.42,5.906H492.1c.233-2.2-.688-3.248-1.511-4.39.085-.971.738-1.379.909-2.269,1.57,1.2,1.667,3.881,1.663,6.659h4.546c-.408-4.033-1.107-7.774-1.515-11.807.031-.637-.676-.532-.909-.905a14.919,14.919,0,0,1,.606-3.182Z" transform="translate(-420.494 -218.69)" fill="#fff" fill-rule="evenodd"/>
        <path id="Caminho_21" data-name="Caminho 21" d="M669.361,218.69a3.7,3.7,0,0,0,2.724,1.818c-.109.851-.194,1.721-.3,2.572-.427.128-.392-.214-.754-.148.424,4.822,1.663,8.827,1.663,14.076-4.188-.3-10,1.018-11.656-1.818a9.681,9.681,0,0,1-5.754,1.818,8.426,8.426,0,0,1-13.171,4.845c.746-.812,1.853.058,2.724.152,6.364.664,12.444-6.706,7.114-11.2a11.008,11.008,0,0,0,.758-2.121c1.713,1.061,2.5,3.046,2.424,5.906a9.677,9.677,0,0,0,4.845-1.061,1.791,1.791,0,0,0-2.875-.909c.058-1.166.012-2.335.606-2.875,1.43-1.305,6.8-.781,6.811,1.511,0,1.119-1.037,1.577-1.97,2.572,1.663,1.469,5.8.462,8.629.758-.4-4.033-1.107-7.774-1.515-11.807.035-.637-.676-.532-.905-.905a15.159,15.159,0,0,1,.606-3.182Z" transform="translate(-523.883 -218.69)" fill="#fff" fill-rule="evenodd"/>
        <path id="Caminho_22" data-name="Caminho 22" d="M349.488,219.464c.971.085,1.379.738,2.269.905-.039.971-.746,1.274-.905,2.117a8.669,8.669,0,0,0-2.121-1.061c.039-.87.637-1.177.758-1.966Z" transform="translate(-344.487 -219.161)" fill="#fff" fill-rule="evenodd"/>
        <path id="Caminho_23" data-name="Caminho 23" d="M585.591,219.464c.971.085,1.379.738,2.269.905-.039.971-.746,1.274-.909,2.117a8.6,8.6,0,0,0-2.121-1.061c.039-.87.637-1.177.758-1.966Z" transform="translate(-488.857 -219.161)" fill="#fff" fill-rule="evenodd"/>
        <path id="Caminho_24" data-name="Caminho 24" d="M460.714,222.2c.35,5.14,3.2,13.369-.152,17.1a36.861,36.861,0,0,0-.455-9.231c-.225-1.853-.9-3.982-.758-5.3.089-.808,1.084-2,1.364-2.572Z" transform="translate(-412.117 -220.836)" fill="#fff" fill-rule="evenodd"/>
        <path id="Caminho_25" data-name="Caminho 25" d="M546.822,222.2c.35,5.14,3.205,13.369-.151,17.1a36.87,36.87,0,0,0-.455-9.231c-.229-1.853-.9-3.982-.758-5.3.085-.808,1.084-2,1.364-2.572Z" transform="translate(-464.77 -220.836)" fill="#fff" fill-rule="evenodd"/>
        <path id="Caminho_26" data-name="Caminho 26" d="M727.212,222.2c.35,5.14,3.205,13.369-.152,17.1a36.858,36.858,0,0,0-.455-9.231c-.225-1.853-.9-3.982-.758-5.3.089-.808,1.084-2,1.364-2.572Z" transform="translate(-575.075 -220.836)" fill="#fff" fill-rule="evenodd"/>
        <path id="Caminho_27" data-name="Caminho 27" d="M341.308,222.97c.971.085,1.379.738,2.269.909a4.908,4.908,0,0,1-.909,1.97c-.828-.183-1.294-.727-2.117-.909.039-.866.637-1.177.758-1.966Z" transform="translate(-339.485 -221.307)" fill="#fff" fill-rule="evenodd"/>
        <path id="Caminho_28" data-name="Caminho 28" d="M577.418,222.97c.971.085,1.379.738,2.269.909a4.908,4.908,0,0,1-.909,1.97c-.831-.183-1.29-.727-2.117-.909.039-.866.637-1.177.758-1.966Z" transform="translate(-483.861 -221.307)" fill="#fff" fill-rule="evenodd"/>
        <path id="Caminho_29" data-name="Caminho 29" d="M441.821,228.82c.971.085,1.379.738,2.269.909-.066.894-.626,1.29-.909,1.97-.828-.183-1.29-.73-2.121-.909.039-.87.637-1.181.758-1.966Z" transform="translate(-400.945 -224.884)" fill="#fff" fill-rule="evenodd"/>
        <path id="Caminho_30" data-name="Caminho 30" d="M580.145,233.88c1.29,2.9.932,7.444,2.572,9.989h8.326c.229-2.2-.688-3.248-1.515-4.39.089-.971.738-1.379.909-2.269,1.57,1.2,1.667,3.881,1.667,6.659h6.053c.233-2.2-.688-3.248-1.511-4.39.085-.971.738-1.379.909-2.269,2.016,1.562,1.612,5.552,1.663,9.08-5.6-.093-11.6.2-16.955-.152a9.146,9.146,0,0,1-1.966-4.693c-.61,1.531-4.258,1.912-6.356.909.629-3.1,3.337-4.13,5.754-5.447a2.961,2.961,0,0,1,.455-3.027Zm-.606,4.693c-1.115.6-2.432,1-2.875,2.269,1.278.342,3.046.218,3.481-.754C579.857,239.669,580.234,238.585,579.539,238.573Z" transform="translate(-482.198 -227.978)" fill="#fff" fill-rule="evenodd"/>
        <path id="Caminho_31" data-name="Caminho 31" d="M431.789,244.4c2.467,1.473,3.271,6.772,2.117,9.841-.921,2.448-4.476,4.993-6.508,5.148-2.222.167-4.262-1.072-6.209-1.818.8-.781,1.95.066,2.875.152,6.259.579,12.27-6.741,6.962-11.2a11.009,11.009,0,0,0,.758-2.121Z" transform="translate(-388.795 -234.411)" fill="#fff" fill-rule="evenodd"/>
        <path id="Caminho_32" data-name="Caminho 32" d="M376.368,270.51c.971.085,1.383.738,2.269.909-.039.971-.742,1.274-.905,2.121a8.738,8.738,0,0,0-2.121-1.061C375.649,271.609,376.247,271.3,376.368,270.51Z" transform="translate(-360.924 -250.377)" fill="#fff" fill-rule="evenodd"/>
        <path id="Caminho_33" data-name="Caminho 33" d="M410.274,270.51c.971.085,1.379.738,2.269.909-.039.971-.742,1.274-.905,2.121a8.782,8.782,0,0,0-2.117-1.061c.039-.87.637-1.177.758-1.97Z" transform="translate(-381.659 -250.377)" fill="#fff" fill-rule="evenodd"/>
        <path id="Caminho_34" data-name="Caminho 34" d="M612.874,270.51c.971.085,1.383.738,2.273.909-.039.971-.746,1.274-.905,2.121a8.739,8.739,0,0,0-2.121-1.061c.039-.87.637-1.177.758-1.97Z" transform="translate(-505.544 -250.377)" fill="#fff" fill-rule="evenodd"/>
        <path id="Caminho_35" data-name="Caminho 35" d="M513.518,272.054c.971.089,1.379.738,2.269.909-.039.967-.742,1.274-.909,2.117a8.78,8.78,0,0,0-2.117-1.061c.039-.87.637-1.181.758-1.97Z" transform="translate(-444.788 -251.318)" fill="#fff" fill-rule="evenodd"/>
        <path id="Caminho_36" data-name="Caminho 36" d="M627.678,272.054c.971.089,1.383.738,2.273.909-.039.967-.746,1.274-.909,2.117a8.738,8.738,0,0,0-2.121-1.061c.039-.87.637-1.181.758-1.97Z" transform="translate(-514.594 -251.318)" fill="#fff" fill-rule="evenodd"/>
        <path id="Caminho_37" data-name="Caminho 37" d="M368.2,274c.971.089,1.379.738,2.269.909a4.938,4.938,0,0,1-.905,1.966c-.831-.179-1.294-.727-2.121-.909.039-.87.637-1.177.758-1.97Z" transform="translate(-355.928 -252.511)" fill="#fff" fill-rule="evenodd"/>
        <path id="Caminho_38" data-name="Caminho 38" d="M402.088,274c.971.089,1.379.738,2.269.909a4.938,4.938,0,0,1-.905,1.966c-.828-.179-1.294-.727-2.121-.909.039-.87.637-1.177.758-1.97Z" transform="translate(-376.651 -252.511)" fill="#fff" fill-rule="evenodd"/>
        <path id="Caminho_39" data-name="Caminho 39" d="M604.694,274c.971.089,1.383.738,2.273.909a4.89,4.89,0,0,1-.909,1.966c-.828-.179-1.29-.727-2.117-.909.039-.87.637-1.177.758-1.97Z" transform="translate(-500.542 -252.511)" fill="#fff" fill-rule="evenodd"/>
      </g>
    </g>
    <g id="Grupo_4" data-name="Grupo 4" transform="translate(131.453 5.486)">
      <path id="Caminho_40" data-name="Caminho 40" d="M341.666,28.608l-1.228,5.649h-2.1l4.3-18.847h2.378l4.2,18.847h-2.125l-1.232-5.649H341.67Zm3.889-1.733-.979-4.779c-.28-1.344-.532-2.91-.754-4.309h-.082c-.225,1.426-.505,3.046-.785,4.336l-.979,4.752Z" transform="translate(-338.34 -14.909)" fill="#fff"/>
      <path id="Caminho_41" data-name="Caminho 41" d="M371.273,32.238c0-1.146-.082-2.49-.113-3.5h1.931l.113,2.125h.058a3.292,3.292,0,0,1,2.852-2.347,2.036,2.036,0,0,1,.447.031v2.207a2.341,2.341,0,0,0-.447-.027c-1.371,0-2.378,1.259-2.6,2.825a7.632,7.632,0,0,0-.086,1.228v7.495h-2.152V32.238Z" transform="translate(-358.409 -22.925)" fill="#fff"/>
      <path id="Caminho_42" data-name="Caminho 42" d="M394.4,39.2a21.406,21.406,0,0,0,.14,3.073h-1.931l-.14-1.426h-.085A3.041,3.041,0,0,1,389.7,42.5c-1.818,0-3.213-1.511-3.213-3.858,0-3.411,2.712-4.9,5.762-4.923V33.3c0-1.818-.447-3.073-2.152-3.073a3.864,3.864,0,0,0-2.238.7l-.478-1.507a5.9,5.9,0,0,1,3.159-.9c2.712,0,3.858,1.791,3.858,4.81V39.2Zm-2.1-3.944c-1.119,0-3.718.221-3.718,3.159,0,1.787.894,2.4,1.647,2.4.952,0,1.737-.7,1.985-2.04A3.838,3.838,0,0,0,392.3,38V35.261Z" transform="translate(-367.783 -22.925)" fill="#fff"/>
      <path id="Caminho_43" data-name="Caminho 43" d="M414.023,14.12h2.152v7.409h.058a3.026,3.026,0,0,1,2.852-1.818c2.125,0,3.691,2.4,3.691,6.85,0,4.892-2.013,7.129-4.083,7.129a2.777,2.777,0,0,1-2.685-1.985H415.9l-.14,1.76H413.91c.031-.785.113-2.319.113-3.217Zm2.152,14.6a3.74,3.74,0,0,0,.085.839c.505,1.985,1.426,2.351,2.013,2.351,1.737,0,2.351-2.351,2.351-5.23,0-2.712-.645-5.117-2.378-5.117-1.01,0-1.818,1.232-2.013,2.4-.027.307-.058.641-.058.952v3.8Z" transform="translate(-384.549 -14.12)" fill="#fff"/>
      <path id="Caminho_44" data-name="Caminho 44" d="M442.99,15.555a13.2,13.2,0,0,1,3.159-.365,6,6,0,0,1,4.165,1.286,4.367,4.367,0,0,1,1.232,3.244,4.362,4.362,0,0,1-2.91,4.2V24a4.606,4.606,0,0,1,3.5,4.81,5.4,5.4,0,0,1-1.34,3.722c-1.065,1.2-2.825,1.706-4.977,1.706a15.21,15.21,0,0,1-2.825-.194Zm2.152,7.747h.979a3.256,3.256,0,0,0,3.275-3.33,2.775,2.775,0,0,0-3.108-3.1,3.927,3.927,0,0,0-1.146.14V23.3Zm0,9.146a5.453,5.453,0,0,0,1.092.085,3.4,3.4,0,0,0,3.664-3.745,3.619,3.619,0,0,0-3.8-3.858h-.952v7.522Z" transform="translate(-402.331 -14.774)" fill="#fff"/>
      <path id="Caminho_45" data-name="Caminho 45" d="M471.813,32.238c0-1.146-.085-2.49-.113-3.5h1.931l.113,2.125h.054a3.292,3.292,0,0,1,2.852-2.347,2.018,2.018,0,0,1,.447.031v2.207a2.32,2.32,0,0,0-.447-.027c-1.368,0-2.378,1.259-2.6,2.825a8.11,8.11,0,0,0-.085,1.228v7.495h-2.152Z" transform="translate(-419.887 -22.925)" fill="#fff"/>
      <path id="Caminho_46" data-name="Caminho 46" d="M494.95,39.2a20.838,20.838,0,0,0,.144,3.073h-1.931l-.144-1.426h-.082a3.037,3.037,0,0,1-2.685,1.651c-1.818,0-3.213-1.511-3.213-3.858,0-3.411,2.712-4.9,5.758-4.923V33.3c0-1.818-.447-3.073-2.152-3.073a3.873,3.873,0,0,0-2.238.7l-.474-1.507a5.9,5.9,0,0,1,3.159-.9c2.712,0,3.858,1.791,3.858,4.81V39.2Zm-2.1-3.944c-1.119,0-3.718.221-3.718,3.159,0,1.787.9,2.4,1.651,2.4.952,0,1.733-.7,1.985-2.04a3.838,3.838,0,0,0,.082-.781V35.261Z" transform="translate(-429.267 -22.925)" fill="#fff"/>
      <path id="Caminho_47" data-name="Caminho 47" d="M512.08,41.3l4.278-8.388c.365-.672.785-1.4,1.092-1.985v-.058h-4.837V29.08h7.242v1.426l-4.25,8.248c-.361.668-.785,1.4-1.088,2.013v.054h5.311v1.791h-7.743V41.3Z" transform="translate(-444.578 -23.268)" fill="#fff"/>
      <path id="Caminho_48" data-name="Caminho 48" d="M537.562,19.287a1.272,1.272,0,0,1-1.232-1.4,1.292,1.292,0,0,1,1.259-1.4,1.266,1.266,0,0,1,1.286,1.4,1.264,1.264,0,0,1-1.286,1.4Zm-1.006,15.63V21.385h2.152V34.918Z" transform="translate(-459.406 -15.569)" fill="#fff"/>
      <path id="Caminho_49" data-name="Caminho 49" d="M549.72,14.12h2.152V33.468H549.72Z" transform="translate(-467.594 -14.12)" fill="#fff"/>
      <path id="Caminho_50" data-name="Caminho 50" d="M563.682,19.287a1.272,1.272,0,0,1-1.232-1.4,1.292,1.292,0,0,1,1.259-1.4,1.266,1.266,0,0,1,1.286,1.4,1.264,1.264,0,0,1-1.286,1.4h-.031Zm-1.006,15.63V21.385h2.152V34.918Z" transform="translate(-475.378 -15.569)" fill="#fff"/>
      <path id="Caminho_51" data-name="Caminho 51" d="M581.728,39.2a21.415,21.415,0,0,0,.14,3.073h-1.931l-.14-1.426h-.085a3.042,3.042,0,0,1-2.685,1.651c-1.818,0-3.217-1.511-3.217-3.858,0-3.411,2.712-4.9,5.762-4.923V33.3c0-1.818-.447-3.073-2.152-3.073a3.843,3.843,0,0,0-2.234.7l-.478-1.507a5.9,5.9,0,0,1,3.159-.9c2.712,0,3.858,1.791,3.858,4.81V39.2Zm-2.1-3.944c-1.119,0-3.718.221-3.718,3.159,0,1.787.894,2.4,1.647,2.4.952,0,1.737-.7,1.985-2.04a3.838,3.838,0,0,0,.082-.781V35.261Z" transform="translate(-482.325 -22.925)" fill="#fff"/>
      <path id="Caminho_52" data-name="Caminho 52" d="M601.433,32.238c0-1.593-.082-2.4-.113-3.5H603.2l.113,1.624h.054a3.431,3.431,0,0,1,3.1-1.845c1.877,0,3.271,1.371,3.271,4.67v9.088h-2.152V33.555c0-1.62-.307-3.217-1.873-3.217-.9,0-1.764.754-2.013,2.211a4.974,4.974,0,0,0-.113,1.2v8.528h-2.152V32.238Z" transform="translate(-499.146 -22.925)" fill="#fff"/>
      <path id="Caminho_53" data-name="Caminho 53" d="M348.093,103.236a6.1,6.1,0,0,1-2.712.505c-3.664,0-6.321-2.937-6.321-9.34,0-7.467,3.691-9.841,6.683-9.841a4.541,4.541,0,0,1,2.319.478l-.478,1.818a3.944,3.944,0,0,0-1.873-.392c-2.013,0-4.39,1.958-4.39,7.716s2.125,7.662,4.445,7.662a5.054,5.054,0,0,0,1.958-.389l.365,1.787Z" transform="translate(-338.78 -57.192)" fill="#fff"/>
      <path id="Caminho_54" data-name="Caminho 54" d="M367.06,83.69h2.152v7.269h.058a3.889,3.889,0,0,1,1.146-1.2,3.137,3.137,0,0,1,1.791-.478c1.706,0,3.159,1.344,3.159,4.779v8.979h-2.152V94.316c0-1.678-.361-3.217-1.818-3.217-1.006,0-1.764.727-2.1,2.152a6.28,6.28,0,0,0-.085,1.006v8.781H367.06Z" transform="translate(-355.902 -56.66)" fill="#fff"/>
      <path id="Caminho_55" data-name="Caminho 55" d="M401.658,108.771a20.838,20.838,0,0,0,.144,3.073h-1.931l-.144-1.426h-.085a3.042,3.042,0,0,1-2.685,1.651c-1.818,0-3.217-1.511-3.217-3.858,0-3.411,2.712-4.9,5.762-4.923v-.42c0-1.818-.447-3.073-2.152-3.073a3.873,3.873,0,0,0-2.238.7l-.474-1.507a5.9,5.9,0,0,1,3.159-.9c2.712,0,3.858,1.791,3.858,4.81v5.874Zm-2.1-3.944c-1.119,0-3.718.221-3.718,3.159,0,1.787.894,2.4,1.651,2.4.952,0,1.733-.7,1.985-2.04a3.587,3.587,0,0,0,.086-.781v-2.739Z" transform="translate(-372.216 -65.466)" fill="#fff"/>
      <path id="Caminho_56" data-name="Caminho 56" d="M421.363,101.8c0-1.593-.082-2.4-.113-3.5h1.9l.113,1.651h.054a3.333,3.333,0,0,1,3.019-1.877,2.827,2.827,0,0,1,2.852,2.044h.054a4.549,4.549,0,0,1,1.313-1.539,3.556,3.556,0,0,1,1.873-.5c1.845,0,3.271,1.313,3.271,4.779v8.979h-2.152v-8.5c0-1.764-.253-3.47-1.877-3.47-.894,0-1.678.754-1.985,2.04a5.19,5.19,0,0,0-.085,1.2v8.722h-2.152v-8.893c0-1.48-.253-3.073-1.845-3.073-.9,0-1.764.754-2.013,2.207a6.857,6.857,0,0,0-.085,1.146v8.614h-2.152V101.8Z" transform="translate(-389.038 -65.46)" fill="#fff"/>
      <path id="Caminho_57" data-name="Caminho 57" d="M465.483,83.684h2.152v7.409h.058a3.026,3.026,0,0,1,2.852-1.818c2.125,0,3.691,2.4,3.691,6.85,0,4.892-2.013,7.129-4.083,7.129a2.78,2.78,0,0,1-2.685-1.985h-.113l-.14,1.76H465.37c.027-.785.113-2.319.113-3.217V83.68Zm2.152,14.6a3.74,3.74,0,0,0,.086.839c.5,1.985,1.422,2.351,2.013,2.351,1.733,0,2.351-2.351,2.351-5.23,0-2.712-.645-5.117-2.378-5.117-1.006,0-1.818,1.232-2.013,2.4-.031.307-.058.641-.058.952v3.8Z" transform="translate(-416.016 -56.654)" fill="#fff"/>
      <path id="Caminho_58" data-name="Caminho 58" d="M494.6,105.268c.027,4.165,1.651,5.031,3.186,5.031a4.815,4.815,0,0,0,2.238-.5l.361,1.566a6.553,6.553,0,0,1-2.992.641c-3.217,0-4.892-2.626-4.892-6.8,0-4.39,1.846-7.129,4.557-7.129s3.858,2.91,3.858,5.956c0,.532-.027.894-.054,1.232Zm4.25-1.593c.027-2.712-.979-3.912-2.013-3.912-1.4,0-2.125,2.067-2.211,3.912Z" transform="translate(-432.605 -65.46)" fill="#fff"/>
      <path id="Caminho_59" data-name="Caminho 59" d="M519.463,101.808c0-1.146-.082-2.49-.113-3.5h1.931l.113,2.125h.054A3.3,3.3,0,0,1,524.3,98.09a2.018,2.018,0,0,1,.447.031v2.207a2.32,2.32,0,0,0-.447-.027c-1.371,0-2.374,1.259-2.6,2.825a7.632,7.632,0,0,0-.086,1.228v7.495h-2.152Z" transform="translate(-449.023 -65.466)" fill="#fff"/>
      <path id="Caminho_60" data-name="Caminho 60" d="M550.87,112.063c-2.432,0-4.39-2.211-4.39-6.962s2.207-7.021,4.53-7.021,4.363,2.238,4.363,6.962c0,5.257-2.4,7.021-4.472,7.021h-.031Zm.113-1.706c1.846,0,2.234-3.159,2.234-5.284s-.388-5.284-2.292-5.284-2.292,3.19-2.292,5.284c0,2.238.388,5.284,2.319,5.284h.027Z" transform="translate(-465.613 -65.46)" fill="#fff"/>
      <path id="Caminho_61" data-name="Caminho 61" d="M573.6,102.678V90.766H571.89V89.142H573.6V88.3a5.942,5.942,0,0,1,1.2-4.056,3.669,3.669,0,0,1,2.712-1.146,3.8,3.8,0,0,1,1.678.334l-.334,1.678a3.036,3.036,0,0,0-1.2-.225c-1.539,0-1.9,1.651-1.9,3.384v.866h2.459v1.624h-2.459v11.912H573.6Z" transform="translate(-481.15 -56.3)" fill="#fff"/>
      <path id="Caminho_62" data-name="Caminho 62" d="M609.419,103.236a6.1,6.1,0,0,1-2.712.505c-3.664,0-6.317-2.937-6.317-9.34,0-7.467,3.691-9.841,6.683-9.841a4.53,4.53,0,0,1,2.319.478l-.474,1.818a3.945,3.945,0,0,0-1.873-.392c-2.013,0-4.39,1.958-4.39,7.716s2.125,7.662,4.445,7.662a5.071,5.071,0,0,0,1.958-.389l.361,1.787Z" transform="translate(-498.578 -57.192)" fill="#fff"/>
      <path id="Caminho_63" data-name="Caminho 63" d="M629.97,112.063c-2.436,0-4.39-2.211-4.39-6.962s2.207-7.021,4.53-7.021,4.363,2.238,4.363,6.962c0,5.257-2.4,7.021-4.476,7.021h-.027Zm.113-1.706c1.846,0,2.238-3.159,2.238-5.284s-.392-5.284-2.292-5.284-2.292,3.19-2.292,5.284c0,2.238.392,5.284,2.319,5.284Z" transform="translate(-513.981 -65.46)" fill="#fff"/>
      <path id="Caminho_64" data-name="Caminho 64" d="M654.043,101.8c0-1.593-.082-2.4-.113-3.5h1.9l.113,1.651H656a3.328,3.328,0,0,1,3.019-1.877,2.824,2.824,0,0,1,2.852,2.044h.054a4.549,4.549,0,0,1,1.313-1.539,3.556,3.556,0,0,1,1.873-.5c1.845,0,3.271,1.313,3.271,4.779v8.979h-2.152v-8.5c0-1.764-.253-3.47-1.877-3.47-.894,0-1.675.754-1.985,2.04a5.427,5.427,0,0,0-.082,1.2v8.722h-2.152v-8.893c0-1.48-.253-3.073-1.846-3.073-.9,0-1.764.754-2.013,2.207a7.315,7.315,0,0,0-.082,1.146v8.614h-2.152V101.8Z" transform="translate(-531.316 -65.46)" fill="#fff"/>
      <path id="Caminho_65" data-name="Caminho 65" d="M698.233,101.8c0-1.593-.082-2.4-.113-3.5h1.9l.113,1.651h.054a3.328,3.328,0,0,1,3.019-1.877,2.827,2.827,0,0,1,2.852,2.044h.058a4.466,4.466,0,0,1,1.313-1.539,3.556,3.556,0,0,1,1.873-.5c1.845,0,3.275,1.313,3.275,4.779v8.979h-2.156v-8.5c0-1.764-.253-3.47-1.873-3.47-.894,0-1.678.754-1.985,2.04a5.192,5.192,0,0,0-.085,1.2v8.722h-2.152v-8.893c0-1.48-.253-3.073-1.845-3.073-.894,0-1.76.754-2.013,2.207a7.323,7.323,0,0,0-.082,1.146v8.614h-2.152V101.8Z" transform="translate(-558.337 -65.46)" fill="#fff"/>
      <path id="Caminho_66" data-name="Caminho 66" d="M743.184,105.268c.027,4.165,1.651,5.031,3.19,5.031a4.815,4.815,0,0,0,2.238-.5l.361,1.566a6.565,6.565,0,0,1-2.992.641c-3.213,0-4.891-2.626-4.891-6.8,0-4.39,1.845-7.129,4.557-7.129s3.858,2.91,3.858,5.956c0,.532-.027.894-.058,1.232Zm4.25-1.593c.027-2.712-.979-3.912-2.013-3.912-1.4,0-2.121,2.067-2.207,3.912h4.223Z" transform="translate(-584.612 -65.46)" fill="#fff"/>
      <path id="Caminho_67" data-name="Caminho 67" d="M768.043,101.808c0-1.146-.082-2.49-.113-3.5h1.931l.113,2.125h.058a3.292,3.292,0,0,1,2.852-2.347,2.035,2.035,0,0,1,.447.031v2.207a2.34,2.34,0,0,0-.447-.027c-1.372,0-2.378,1.259-2.6,2.825a7.632,7.632,0,0,0-.085,1.228v7.495h-2.152V101.808Z" transform="translate(-601.024 -65.466)" fill="#fff"/>
      <path id="Caminho_68" data-name="Caminho 68" d="M790.384,111.559a4.633,4.633,0,0,1-2.238.505c-2.964,0-4.946-2.378-4.946-6.85,0-3.885,1.958-7.044,5.342-7.044a3.959,3.959,0,0,1,1.9.447l-.42,1.733a3.51,3.51,0,0,0-1.539-.365c-2.183,0-3.131,2.572-3.131,5.23,0,3.159,1.2,5.062,3.19,5.062a3.185,3.185,0,0,0,1.535-.365l.307,1.651Z" transform="translate(-610.362 -65.515)" fill="#fff"/>
      <path id="Caminho_69" data-name="Caminho 69" d="M806.158,105.268c.023,4.165,1.647,5.031,3.186,5.031a4.815,4.815,0,0,0,2.238-.5l.361,1.566a6.553,6.553,0,0,1-2.992.641c-3.217,0-4.892-2.626-4.892-6.8,0-4.39,1.846-7.129,4.557-7.129s3.858,2.91,3.858,5.956c0,.532-.027.894-.054,1.232Zm4.25-1.593c.027-2.712-.979-3.912-2.013-3.912-1.4,0-2.125,2.067-2.211,3.912Z" transform="translate(-623.117 -65.46)" fill="#fff"/>
    </g>
    <g id="Grupo_6" data-name="Grupo 6">
      <path id="Caminho_70" data-name="Caminho 70" d="M116.25,58.127A58.125,58.125,0,1,1,58.127,0,58.131,58.131,0,0,1,116.25,58.127Z" fill="#fff"/>
      <g id="Grupo_5" data-name="Grupo 5" transform="translate(0 0.072)">
        <path id="Caminho_71" data-name="Caminho 71" d="M61.052.187c-21.711-.225-39,22.387-36.987,45.391A41.691,41.691,0,0,0,38.11,73.338L57.152,5.328h1.239l21.971,75.8A41.881,41.881,0,0,0,107.38,45.885,45.06,45.06,0,0,1,81.535,85.27a.055.055,0,0,0,.023-.008l4.223,14.585h9.356v2.145H62.109V99.847H73.155l-3.12-10.968a.774.774,0,0,0,.132-.019c-1.267.218-2.549.385-3.858.5a44.813,44.813,0,0,1-28.378-7.052L36.292,88.3a33.915,33.915,0,0,0-1.686,8.194c0,1.88,1.352,3.357,4.961,3.357h5.859v2.145H22.2V99.847h3.609c3.5,0,4.958-.4,7.1-7.922l3.069-10.952A45.019,45.019,0,0,1,54.129.269c.027,0,.051-.012.078-.016s.031,0,.043,0A58.118,58.118,0,0,0,0,58.24c0,30.8,26.023,58.127,58.127,58.127A58.128,58.128,0,0,0,116.254,58.24C116.254,26.141,91.8,1.714,61.052.187Z" transform="translate(0 -0.186)" fill="url(#linear-gradient)"/>
        <path id="Caminho_72" data-name="Caminho 72" d="M104.327,91.692a42.089,42.089,0,0,0,10.984-2.467L93.343,13.42H92.1L67.868,100.014c-2.141,7.518-3.605,7.922-7.1,7.922H57.16v2.145H80.382v-2.145H74.523c-3.609,0-4.961-1.476-4.961-3.357a33.989,33.989,0,0,1,1.686-8.194L87.6,36.642h.221L103.5,91.758c.276-.019.552-.047.824-.066Z" transform="translate(-34.952 -8.278)" fill-rule="evenodd" fill="url(#linear-gradient-2)"/>
        <path id="Caminho_73" data-name="Caminho 73" d="M90.489,28.55h-.221L77.59,74.877a41.649,41.649,0,0,0,28.584,8.781ZM145.2,38.387a41.872,41.872,0,0,0-7.063-19.912A57.987,57.987,0,0,0,99.083.211h-.008c-.136,0-.268-.016-.4-.023-14.348-.148-26.765,9.678-32.955,23V23.2a44.145,44.145,0,0,0-4.029,22.383,41.691,41.691,0,0,0,14.045,27.76L94.774,5.328h1.239l21.971,75.8A41.881,41.881,0,0,0,145,45.885q-.041,1.533-.194,3.042a42.2,42.2,0,0,0,.4-10.533Z" transform="translate(-37.623 -0.186)" fill="url(#radial-gradient)"/>
        <path id="Caminho_74" data-name="Caminho 74" d="M183.533,233.735l-4.223-14.585a44.877,44.877,0,0,1-11.524,3.617l3.12,10.968H159.86v2.145h33.028v-2.145Z" transform="translate(-97.751 -134.077)" fill="#fd0" fill-rule="evenodd"/>
      </g>
    </g>
  </g>
</svg>
