<svg width="100" height="55" viewBox="0 0 100 55" fill="none" xmlns="http://www.w3.org/2000/svg">
<g clip-path="url(#clip0_472_76)">
<path d="M4.30882 46.128C2.05556 45.6141 0.0790219 47.5906 0.553391 49.8834C0.790576 51.0298 1.73932 51.939 2.88571 52.2157C5.13896 52.7296 7.15503 50.7531 6.64113 48.4603C6.36442 47.3139 5.45521 46.4047 4.30882 46.128Z" fill="#EFF1F3"/>
<path d="M4.3092 2.60461C2.01642 2.09071 0.0398771 4.06725 0.553777 6.3205C0.790962 7.4669 1.7397 8.3761 2.88609 8.65282C5.13935 9.16672 7.15542 7.19018 6.64152 4.89739C6.3648 3.751 5.4556 2.84179 4.3092 2.60461Z" fill="#EFF1F3"/>
<path d="M4.3092 13.1988C2.01642 12.6849 0.0398771 14.6615 0.553777 16.9147C0.790962 18.0611 1.7397 18.9703 2.88609 19.2471C5.13935 19.761 7.11589 17.7844 6.64152 15.4916C6.3648 14.3848 5.4556 13.436 4.3092 13.1988Z" fill="#EFF1F3"/>
<path d="M4.3092 24.3464C2.01642 23.872 0.0398771 25.8485 0.553777 28.1018C0.790962 29.2482 1.7397 30.1574 2.88609 30.4341C5.13935 30.948 7.15542 28.9715 6.64152 26.6787C6.3648 25.5323 5.4556 24.6231 4.3092 24.3464Z" fill="#EFF1F3"/>
<path d="M4.30896 35.5338C2.0557 35.0199 0.0396303 36.9964 0.553531 39.2892C0.790715 40.4356 1.73945 41.3448 2.88585 41.6215C5.1391 42.1354 7.11564 40.1589 6.64127 37.8661C6.36456 36.7197 5.45535 35.7709 4.30896 35.5338Z" fill="#EFF1F3"/>
<path d="M15.4563 24.3463C13.203 23.8324 11.2265 25.8089 11.7009 28.1017C11.938 29.2481 12.8868 30.1573 14.0332 30.434C16.2864 30.9479 18.3025 28.9714 17.7886 26.6786C17.5119 25.5322 16.6027 24.623 15.4563 24.3463Z" fill="#EFF1F3"/>
<path d="M26.6439 24.3463C24.3907 23.8324 22.3746 25.8089 22.8885 28.1017C23.1257 29.2481 24.0744 30.1573 25.2208 30.434C27.4741 30.9479 29.4506 28.9714 28.9762 26.6786C28.6995 25.5322 27.7903 24.623 26.6439 24.3463Z" fill="#EFF1F3"/>
<path d="M63.6047 46.128C61.3515 45.6141 59.3749 47.5906 59.8493 49.8834C60.0865 51.0298 61.0352 51.939 62.1816 52.2157C64.4349 52.7296 66.4509 50.7531 65.937 48.4603C65.6603 47.3139 64.7116 46.4047 63.6047 46.128Z" fill="#EFF1F3"/>
<path d="M63.6047 2.60456C61.3515 2.09066 59.3749 4.0672 59.8493 6.35998C60.0865 7.50638 61.0352 8.41559 62.1816 8.6923C64.4349 9.2062 66.4509 7.22966 65.937 4.93688C65.6603 3.75095 64.7116 2.84174 63.6047 2.60456Z" fill="#EFF1F3"/>
<path d="M63.6049 13.1988C61.3516 12.6849 59.3355 14.6614 59.8494 16.9542C60.0866 18.1006 61.0354 19.0098 62.1817 19.2865C64.435 19.8004 66.4115 17.8239 65.9372 15.5311C65.6605 14.3847 64.7512 13.436 63.6049 13.1988Z" fill="#EFF1F3"/>
<path d="M63.6047 24.3463C61.3515 23.8324 59.3749 25.8089 59.8493 28.1017C60.0865 29.2481 61.0352 30.1573 62.1816 30.434C64.4349 30.9479 66.4509 28.9714 65.937 26.6786C65.6603 25.5322 64.7116 24.623 63.6047 24.3463Z" fill="#EFF1F3"/>
<path d="M63.6049 35.5338C61.3516 35.0199 59.3355 36.9964 59.8494 39.2892C60.0866 40.4356 61.0354 41.3448 62.1817 41.6215C64.435 42.1354 66.4115 40.1589 65.9372 37.8661C65.6605 36.7197 64.7512 35.7709 63.6049 35.5338Z" fill="#EFF1F3"/>
<path d="M74.7532 24.3463C72.4999 23.8324 70.5234 25.8089 70.9977 28.1017C71.2349 29.2481 72.1836 30.1573 73.33 30.434C75.5833 30.9479 77.5994 28.9714 77.0855 26.6786C76.8088 25.5322 75.8995 24.623 74.7532 24.3463Z" fill="#EFF1F3"/>
<path d="M85.9398 24.3463C83.6866 23.8324 81.6705 25.8089 82.1844 28.1017C82.4216 29.2481 83.3703 30.1573 84.5167 30.434C86.77 30.9479 88.7465 28.9714 88.2721 26.6786C87.9954 25.5322 87.0862 24.623 85.9398 24.3463Z" fill="#EFF1F3"/>
<path d="M97.0881 46.128C94.8349 45.6141 92.8583 47.5906 93.3327 49.8834C93.5699 51.0298 94.5186 51.939 95.665 52.2157C97.9183 52.7296 99.9343 50.7531 99.4204 48.4603C99.1832 47.3139 98.2345 46.4047 97.0881 46.128Z" fill="#EFF1F3"/>
<path d="M97.0881 2.60456C94.8349 2.09066 92.8583 4.0672 93.3327 6.35998C93.5699 7.50638 94.5186 8.41559 95.665 8.6923C97.9183 9.2062 99.9343 7.22966 99.4204 4.93688C99.1832 3.75095 98.2345 2.84174 97.0881 2.60456Z" fill="#EFF1F3"/>
<path d="M97.0873 13.1988C94.834 12.6849 92.818 14.6614 93.3319 16.9542C93.569 18.1006 94.5178 19.0098 95.6642 19.2865C97.9174 19.8004 99.894 17.8239 99.4196 15.5311C99.1824 14.3847 98.2337 13.436 97.0873 13.1988Z" fill="#EFF1F3"/>
<path d="M97.0881 24.3463C94.8349 23.8324 92.8583 25.8089 93.3327 28.1017C93.5699 29.2481 94.5186 30.1573 95.665 30.434C97.9183 30.9479 99.9343 28.9714 99.4204 26.6786C99.1832 25.5322 98.2345 24.623 97.0881 24.3463Z" fill="#EFF1F3"/>
<path d="M97.0873 35.5338C94.834 35.0199 92.818 36.9964 93.3319 39.2892C93.569 40.4356 94.5178 41.3448 95.6642 41.6215C97.9174 42.1354 99.894 40.1589 99.4196 37.8661C99.1824 36.7197 98.2337 35.7709 97.0873 35.5338Z" fill="#EFF1F3"/>
<path d="M37.7121 46.128C35.4589 45.6141 33.4823 47.5906 33.9567 49.8834C34.1939 51.0298 35.1426 51.939 36.289 52.2157C38.5423 52.7296 40.5584 50.7531 40.0445 48.4603C39.7677 47.3139 38.819 46.4047 37.7121 46.128Z" fill="#EFF1F3"/>
<path d="M37.7121 2.60456C35.4589 2.09066 33.4823 4.0672 33.9567 6.35998C34.1939 7.50638 35.1426 8.41559 36.289 8.6923C38.5423 9.2062 40.5584 7.22966 40.0445 4.93688C39.7677 3.75095 38.819 2.84174 37.7121 2.60456Z" fill="#EFF1F3"/>
<path d="M37.7123 13.1988C35.459 12.6849 33.443 14.6614 33.9569 16.9542C34.194 18.1006 35.1428 19.0098 36.2892 19.2865C38.5424 19.8004 40.519 17.8239 40.0446 15.5311C39.7679 14.3847 38.8191 13.436 37.7123 13.1988Z" fill="#EFF1F3"/>
<path d="M37.7121 24.3463C35.4589 23.8324 33.4823 25.8089 33.9567 28.1017C34.1939 29.2481 35.1426 30.1573 36.289 30.434C38.5423 30.9479 40.5584 28.9714 40.0445 26.6786C39.7677 25.5322 38.819 24.623 37.7121 24.3463Z" fill="#EFF1F3"/>
<path d="M37.7123 35.5338C35.459 35.0199 33.443 36.9964 33.9569 39.2892C34.194 40.4356 35.1428 41.3448 36.2892 41.6215C38.5424 42.1354 40.519 40.1589 40.0446 37.8661C39.7679 36.7197 38.8191 35.7709 37.7123 35.5338Z" fill="#EFF1F3"/>
<path d="M54.7901 27.5482V26.7576H52.695V27.5087C52.695 28.8922 52.5369 29.841 52.102 30.5921L49.0977 27.1924L50.2836 26.4809C51.2324 25.9274 51.7067 25.1368 51.7067 24.0695C51.7067 22.5673 50.5208 21.4604 48.9 21.4604C47.3188 21.4604 46.1329 22.5673 46.1329 24.0695C46.1329 24.8206 46.3701 25.4531 46.9235 26.046L47.7536 26.9552L46.884 27.4691C45.8562 28.0621 45.3027 29.0504 45.3027 30.1968C45.3027 32.0942 46.7654 33.4778 48.7419 33.4778C50.086 33.4778 51.3114 32.9244 52.2206 31.8966L53.4065 33.2406H54.5529L52.7345 31.185C53.2484 30.3944 53.5251 29.2085 53.5647 27.5087H54.7901V27.5482ZM48.3466 27.5877L51.6277 31.2641C50.8766 32.1733 49.9674 32.6081 48.7814 32.6081C47.3188 32.6081 46.2119 31.5803 46.2119 30.1968C46.2119 29.3271 46.6863 28.576 47.4769 28.1016L48.3466 27.5877ZM48.9 22.2511C50.0464 22.2511 50.837 23.0022 50.837 24.03C50.837 24.702 50.4813 25.3345 49.8488 25.7298L48.5443 26.5204L47.7141 25.5717C47.2793 25.0578 47.0421 24.5439 47.0421 24.03C47.0421 23.0417 47.8327 22.2511 48.9 22.2511Z" fill="#EFF1F3"/>
</g>
<defs>
<clipPath id="clip0_472_76">
<rect width="99.9734" height="53.92" fill="white" transform="translate(0 0.430176)"/>
</clipPath>
</defs>
</svg>
