<svg width="100" height="50" viewBox="0 0 515 455" fill="none" xmlns="http://www.w3.org/2000/svg">
<path d="M298.08 194.99L218.24 32.93L205.76 8.29999H115.74V287.62H168.81V222.68C173.72 220.27 176.9 215.24 176.9 209.58C176.9 201.52 170.33 194.98 162.26 194.98C154.19 194.98 147.65 201.52 147.65 209.58C147.65 215.36 151.06 220.53 156.15 222.89V274.96H128.42V20.96H197.97L206.92 38.59L286.62 200.41C284.55 203 283.39 206.23 283.39 209.58C283.39 217.67 289.96 224.24 298.03 224.24C306.1 224.24 312.64 217.67 312.64 209.58C312.64 201.49 306.11 195.01 298.09 194.98L298.08 194.99ZM154.82 209.62C154.82 207.56 155.66 205.69 157.01 204.34C158.35 202.99 160.22 202.15 162.27 202.15C164.32 202.15 166.2 202.99 167.53 204.34C168.88 205.69 169.72 207.56 169.72 209.62C169.72 211.68 168.88 213.55 167.53 214.9C166.19 216.24 164.32 217.08 162.27 217.08C158.15 217.08 154.82 213.74 154.82 209.63V209.62ZM303.27 214.9C301.93 216.24 300.06 217.08 298.01 217.08C293.88 217.08 290.54 213.74 290.54 209.63C290.54 207.57 291.38 205.7 292.73 204.35C294.07 203 295.95 202.16 298.01 202.16C300.07 202.16 301.94 203 303.27 204.35C304.62 205.7 305.46 207.57 305.46 209.63C305.46 211.69 304.62 213.56 303.27 214.91V214.9Z" fill="#050606"/>
<path d="M283.249 287.57L171.169 54.44H168.889L169.719 119.1L156.979 106.55L156.029 41.77H179.159L291.249 275L295.409 275.09L316.159 275.27L326.589 287.61L288.519 287.75L283.249 287.57Z" fill="#050606"/>
<path d="M386.35 8.31001H311.24C310.53 6.81001 309.58 5.44001 308.4 4.27001C305.68 1.52001 302.05 0.0100098 298.17 0.0100098C290.22 0.0100098 283.73 6.49001 283.73 14.48C283.73 18.35 285.23 21.98 287.93 24.68C290.65 27.41 294.28 28.93 298.16 28.93C304 28.93 309.16 25.46 311.42 20.24H386.34C423.73 20.24 447.88 40.84 447.88 72.71C447.88 112.63 415.68 126.84 385.54 126.84H343.08L342.4 255.66C337.86 258.17 334.93 263.04 334.93 268.33C334.93 272.2 336.43 275.83 339.16 278.56C341.89 281.27 345.53 282.76 349.36 282.76C357.33 282.76 363.81 276.29 363.81 268.32C363.81 264.44 362.3 260.81 359.59 258.12C358.27 256.78 356.69 255.72 354.97 255V138.74H385.52C431.32 138.74 459.78 113.44 459.78 72.7C459.78 31.96 430.93 8.31001 386.31 8.31001H386.35ZM303.45 19.75C302.11 21.09 300.24 21.93 298.19 21.93C294.07 21.93 290.72 18.59 290.72 14.48C290.72 12.41 291.56 10.55 292.91 9.20001C294.26 7.85001 296.13 7.01001 298.19 7.01001C300.25 7.01001 302.12 7.85001 303.45 9.20001C304.8 10.55 305.64 12.4 305.64 14.48C305.64 16.56 304.8 18.41 303.45 19.76V19.75ZM356.86 268.32C356.86 270.39 356.02 272.25 354.67 273.6C353.33 274.95 351.46 275.79 349.41 275.79C345.28 275.79 341.94 272.45 341.94 268.32C341.94 266.26 342.78 264.39 344.13 263.04C345.47 261.7 347.35 260.86 349.41 260.86C351.47 260.86 353.34 261.7 354.67 263.04C356.02 264.39 356.86 266.26 356.86 268.32Z" fill="#050606"/>
<path d="M418.67 73.52C418.67 94.22 404.7 106.1 380.34 106.1H343.23L343.01 96.13L314.15 95.79V181.02L302.23 165.66V83.74L354.69 84.36L354.9 94.18H380.35C398.12 94.18 406.75 87.42 406.75 73.52C406.75 56.23 392.84 52.6 381.17 52.6H256.31L234.07 8.29999H248.27L264.49 40.69H381.18C404.66 40.69 418.68 52.97 418.68 73.52H418.67Z" fill="#050606"/>
<path d="M106.979 453.98H102.839V424.56H93.3691V420.93H116.469V424.56H106.979V453.98Z" fill="#050606"/>
<path d="M142.448 450.35V453.98H121.068V420.93H141.988V424.56H125.208V435.07H138.528V438.44H125.208V450.35H142.448Z" fill="#050606"/>
<path d="M168.05 442.86L171.83 443.71C170.02 451.01 165.94 454.65 159.58 454.65C155.4 454.65 152.12 452.96 149.74 449.59C147.36 446.21 146.17 442.06 146.17 437.13C146.17 432.2 147.41 427.95 149.9 424.87C152.39 421.79 155.72 420.24 159.9 420.24C166.1 420.24 170.08 423.78 171.84 430.87L167.94 431.65C166.52 426.39 163.83 423.76 159.88 423.76C156.96 423.76 154.69 424.98 153.09 427.43C151.48 429.88 150.68 433.31 150.68 437.73C150.68 441.78 151.5 445.03 153.15 447.48C154.8 449.93 156.98 451.15 159.69 451.15C163.9 451.15 166.7 448.39 168.07 442.87L168.05 442.86Z" fill="#050606"/>
<path d="M200.569 453.98H196.429V438.24H181.099V453.98H176.959V420.93H181.099V434.61H196.429V420.93H200.569V453.98Z" fill="#050606"/>
<path d="M233.158 453.98H229.138L212.038 425.16L212.088 427.34C212.138 428.16 212.158 428.86 212.158 429.42V453.97H208.818V420.92H213.998L229.978 447.86L229.928 445.56C229.898 444.66 229.878 443.86 229.878 443.16V420.92H233.148V453.97L233.158 453.98Z" fill="#050606"/>
<path d="M252.83 454.66C248.58 454.66 245.27 453.01 242.9 449.7C240.53 446.4 239.34 442.35 239.34 437.55C239.34 432.75 240.58 428.41 243.07 425.14C245.56 421.88 248.85 420.24 252.95 420.24C257.05 420.24 260.31 421.84 262.78 425.05C265.25 428.26 266.49 432.3 266.49 437.18C266.49 442.06 265.29 445.95 262.89 449.43C260.49 452.91 257.14 454.65 252.83 454.65V454.66ZM252.93 451.29C255.82 451.29 258.08 449.97 259.71 447.34C261.34 444.71 262.16 441.31 262.16 437.16C262.16 433.01 261.32 429.57 259.63 427.2C257.94 424.83 255.7 423.64 252.91 423.64C250.12 423.64 247.84 424.92 246.18 427.49C244.52 430.06 243.69 433.42 243.69 437.57C243.69 441.72 244.53 444.93 246.21 447.47C247.89 450.01 250.13 451.29 252.94 451.29H252.93Z" fill="#050606"/>
<path d="M292.229 450.35V453.98H272.709V420.93H276.949V450.35H292.229Z" fill="#050606"/>
<path d="M307.308 454.66C303.058 454.66 299.758 453.01 297.378 449.7C295.008 446.4 293.818 442.35 293.818 437.55C293.818 432.75 295.058 428.41 297.548 425.14C300.038 421.88 303.328 420.24 307.428 420.24C311.528 420.24 314.788 421.84 317.258 425.05C319.728 428.26 320.958 432.3 320.958 437.18C320.958 442.06 319.758 445.95 317.358 449.43C314.958 452.91 311.608 454.65 307.298 454.65L307.308 454.66ZM307.408 451.29C310.298 451.29 312.558 449.97 314.188 447.34C315.818 444.71 316.638 441.31 316.638 437.16C316.638 433.01 315.798 429.57 314.108 427.2C312.418 424.83 310.178 423.64 307.388 423.64C304.598 423.64 302.318 424.92 300.658 427.49C298.998 430.06 298.168 433.42 298.168 437.57C298.168 441.72 299.008 444.93 300.688 447.47C302.368 450.01 304.608 451.29 307.418 451.29H307.408Z" fill="#050606"/>
<path d="M351.67 437.32V454.44H349.14L348 450.3C345.96 453.21 342.94 454.66 338.91 454.66C334.55 454.66 331.16 453.02 328.73 449.74C326.31 446.46 325.1 442.48 325.1 437.79C325.1 432.78 326.38 428.61 328.95 425.26C331.52 421.92 335 420.24 339.41 420.24C345.5 420.24 349.47 423.44 351.32 429.83L347.4 430.78C346.83 428.33 345.78 426.54 344.23 425.43C342.68 424.32 340.98 423.76 339.15 423.76C335.89 423.76 333.48 425.08 331.93 427.71C330.38 430.34 329.61 433.65 329.61 437.62C329.61 441.9 330.48 445.25 332.21 447.67C333.94 450.08 336.31 451.29 339.29 451.29C341.61 451.29 343.56 450.52 345.11 448.97C346.67 447.42 347.45 445.29 347.45 442.57C347.45 442.07 347.43 441.47 347.4 440.77H339.22V437.31H351.67V437.32Z" fill="#050606"/>
<path d="M361.628 453.98H357.488V420.93H361.628V453.98Z" fill="#050606"/>
<path d="M391.269 450.35V453.98H369.889V420.93H390.809V424.56H374.029V435.07H387.349V438.44H374.029V450.35H391.269Z" fill="#050606"/>
<path d="M393.43 445.24L397.16 444.39C398.66 448.89 401.91 451.15 406.92 451.15C409.54 451.15 411.5 450.59 412.83 449.48C414.15 448.37 414.82 446.88 414.82 445.02C414.82 443.61 414.32 442.48 413.31 441.62C412.3 440.76 411.14 440.17 409.81 439.85L403.2 438.22C401.49 437.78 400.09 437.26 399 436.63C397.91 436.01 396.99 435.05 396.23 433.76C395.47 432.47 395.09 430.99 395.09 429.32C395.09 426.56 396.13 424.35 398.21 422.71C400.29 421.07 402.96 420.25 406.22 420.25C412.23 420.25 416.17 422.97 418.06 428.41L414.31 429.52C413.87 427.58 412.85 426.12 411.23 425.12C409.62 424.13 407.9 423.63 406.07 423.63C404.24 423.63 402.65 424.11 401.24 425.07C399.83 426.03 399.12 427.38 399.12 429.13C399.12 431.58 400.91 433.23 404.49 434.09L410.67 435.54C416.32 436.9 419.15 439.94 419.15 444.67C419.15 447.53 418.09 449.91 415.97 451.8C413.85 453.7 410.86 454.65 407 454.65C400.15 454.65 395.63 451.51 393.44 445.23L393.43 445.24Z" fill="#050606"/>
<path d="M456.59 335.46H411.4V348.25H456.59V335.46Z" fill="#050606"/>
<path d="M326.069 356.84C326.069 362.98 323.969 368.14 319.829 372.2C315.709 376.23 310.309 378.26 303.789 378.26H292.089V403.17H278.039V365.52H303.029C305.819 365.52 307.949 364.76 309.569 363.18C311.159 361.62 311.939 359.55 311.939 356.85C311.939 354.53 311.209 352.52 309.699 350.69C308.349 349.05 306.339 348.26 303.569 348.26H260.389L251.029 335.46H302.969C310.699 335.46 316.579 337.7 320.429 342.1C324.169 346.38 326.059 351.35 326.059 356.85L326.069 356.84Z" fill="#050606"/>
<path d="M39.08 403.17L12.57 358.48V403.17H0V335.46H14.61L39.1 376.73V335.46H51.53V403.17H39.08Z" fill="#050606"/>
<path d="M102.47 403.17L96.2998 385.24H78.1598L72.6698 403.17H59.5098L81.5098 335.46H94.8198L116.97 403.17H102.46H102.47ZM92.5598 373.12L87.4298 357.2L82.3098 373.12H92.5598Z" fill="#050606"/>
<path d="M164.43 403.17L137.92 358.48V403.17H125.35V335.46H139.96L164.45 376.73V335.46H176.88V403.17H164.43Z" fill="#050606"/>
<path d="M212.489 404.42C203.559 404.42 196.489 400.88 191.479 393.9C186.699 387.25 184.279 379.03 184.279 369.49C184.279 359.95 186.829 351.13 191.849 344.53C197.079 337.67 204.099 334.19 212.719 334.19C221.339 334.19 228.289 337.61 233.489 344.36C238.489 350.85 241.029 359.08 241.029 368.81C241.029 378.54 238.599 386.37 233.799 393.35C228.739 400.69 221.579 404.42 212.499 404.42M212.629 346.85C208.449 346.85 205.329 348.66 202.809 352.55C200.079 356.77 198.689 362.49 198.689 369.53C198.689 376.57 200.089 381.98 202.839 386.15C205.349 389.96 208.569 391.8 212.679 391.8C216.789 391.8 220.099 389.95 222.559 385.98C225.259 381.63 226.619 375.83 226.619 368.76C226.619 361.69 225.239 355.96 222.509 352.12C219.989 348.57 216.759 346.85 212.629 346.85Z" fill="#050606"/>
<path d="M343.56 335.46H329.51V403.17H343.56V335.46Z" fill="#050606"/>
<path d="M391.091 403.17L377.381 379.99L363.101 403.17H348.471L370.111 368.2L350.761 335.46H366.751L378.411 355.13L390.361 335.46H404.811L385.641 366.75L407.181 403.17H391.091Z" fill="#050606"/>
<path d="M471.42 403.17V335.46H485.65V390.06H514.01V403.17H471.42Z" fill="#050606"/>
<path d="M456.59 361.58H411.4V374.37H456.59V361.58Z" fill="#050606"/>
<path d="M456.59 390.37H411.4V403.16H456.59V390.37Z" fill="#050606"/>
</svg>
