<svg xmlns="http://www.w3.org/2000/svg" xmlns:xlink="http://www.w3.org/1999/xlink" viewBox="0 0 221.49 117.26"><defs><style>.cls-1{isolation:isolate;}.cls-2{clip-path:url(#clip-path);}.cls-3{fill:none;}.cls-4{fill:url(#linear-gradient);}.cls-5{opacity:0.41;}.cls-6{clip-path:url(#clip-path-2);}.cls-7{mask:url(#mask);}.cls-8{clip-path:url(#clip-path-3);}.cls-9{clip-path:url(#clip-path-4);}.cls-10{fill:url(#linear-gradient-2);}.cls-11{fill:#fff;}.cls-12{fill:#fd0;}.cls-13,.cls-14,.cls-16{mix-blend-mode:multiply;}.cls-13{fill:url(#linear-gradient-3);}.cls-15{fill:url(#linear-gradient-4);}.cls-16{fill:url(#linear-gradient-5);}</style><clipPath id="clip-path"><rect class="cls-3" x="-57.31" y="-225.22" width="127.09" height="130.14" transform="translate(123.46 -50.86) rotate(-49.24)"/></clipPath><linearGradient id="linear-gradient" x1="430.31" y1="164.31" x2="431.83" y2="164.31" gradientTransform="translate(-5457.6 14174.73) rotate(-90) scale(33.25)" gradientUnits="userSpaceOnUse"><stop offset="0" stop-color="#fff"/><stop offset="0.01" stop-color="#f9f9f9"/><stop offset="0.11" stop-color="#c7c6c7"/><stop offset="0.22" stop-color="#9b9a9a"/><stop offset="0.33" stop-color="#767474"/><stop offset="0.45" stop-color="#585556"/><stop offset="0.57" stop-color="#413d3e"/><stop offset="0.69" stop-color="#302c2d"/><stop offset="0.83" stop-color="#262223"/><stop offset="1" stop-color="#231f20"/></linearGradient><clipPath id="clip-path-2"><path class="cls-3" d="M28.09-198.45c-31.79,0-40.85,35.58-40.85,35.58a77.25,77.25,0,0,0-17.6-29.27,5.69,5.69,0,0,0-5.78-1.7c-3.12.9-5.68,3.55-7.35,6.24-1.88,3-3.16,5.44-1.65,9.1,0,0,6.74,14.64,4.75,52.11-0.25,4.53,5.36,3.57,7.74,2.12a13.94,13.94,0,0,0,5.83-7,30.65,30.65,0,0,0,1.25-8.7c0.17-4.33.15-12.79,0.09-17.12,3,3.88,4.73,11.49,4.73,11.49,0.1,0.33.18,0.67,0.29,1,1.12,3.95,3.74,7.54,8.31,6.52,7.23-1.62,7.53-11.22,8.71-17a53.85,53.85,0,0,1,1.85-7,38.51,38.51,0,0,1,1.9-4.56,30.41,30.41,0,0,1,2.06-3.54c4.35-6.46,11-11.8,18.9-12.74,5.76-.7,11.39,0,16.18,3.49a21.82,21.82,0,0,1,3.31,3A16.41,16.41,0,0,1,44-170.53l0,0a43.38,43.38,0,0,0,15.11-2c-6.45-25.1-27.83-26-30.71-26H28.09"/></clipPath><mask id="mask" x="-174.17" y="-340.55" width="360.8" height="360.8" maskUnits="userSpaceOnUse"><g class="cls-1"><g class="cls-2"><rect class="cls-4" x="-121.67" y="-288.07" width="255.81" height="255.84" transform="translate(123.46 -50.86) rotate(-49.24)"/></g></g></mask><clipPath id="clip-path-3"><rect class="cls-3" x="-84.54" y="-250.76" width="181.55" height="181.23"/></clipPath><clipPath id="clip-path-4"><rect class="cls-3" x="-57.31" y="-225.21" width="127.09" height="130.14" transform="translate(123.46 -50.86) rotate(-49.24)"/></clipPath><linearGradient id="linear-gradient-2" x1="430.31" y1="164.31" x2="431.83" y2="164.31" gradientTransform="matrix(0, -33.25, 33.25, 0, -5457.6, 14174.73)" gradientUnits="userSpaceOnUse"><stop offset="0" stop-color="#e63c2f"/><stop offset="0.15" stop-color="#ea5520"/><stop offset="0.33" stop-color="#ee6d12"/><stop offset="0.52" stop-color="#f17e08"/><stop offset="0.74" stop-color="#f28802"/><stop offset="1" stop-color="#f38b00"/></linearGradient><linearGradient id="linear-gradient-3" x1="67.7" y1="64.47" x2="30.35" y2="32.27" gradientUnits="userSpaceOnUse"><stop offset="0" stop-color="#cd9700"/><stop offset="0.08" stop-color="#d6a400" stop-opacity="0.81"/><stop offset="0.19" stop-color="#e1b300" stop-opacity="0.6"/><stop offset="0.31" stop-color="#eac000" stop-opacity="0.41"/><stop offset="0.43" stop-color="#f2cb00" stop-opacity="0.26"/><stop offset="0.55" stop-color="#f8d300" stop-opacity="0.15"/><stop offset="0.68" stop-color="#fcd800" stop-opacity="0.06"/><stop offset="0.82" stop-color="#fedc00" stop-opacity="0.02"/><stop offset="1" stop-color="#fd0" stop-opacity="0"/></linearGradient><linearGradient id="linear-gradient-4" x1="137.11" y1="22.45" x2="154.34" y2="44.18" xlink:href="#linear-gradient-3"/><linearGradient id="linear-gradient-5" x1="91.83" y1="48.04" x2="98.32" y2="63.45" gradientUnits="userSpaceOnUse"><stop offset="0" stop-color="#cd9700"/><stop offset="0.11" stop-color="#daa900" stop-opacity="0.74"/><stop offset="0.21" stop-color="#e5b900" stop-opacity="0.51"/><stop offset="0.32" stop-color="#efc600" stop-opacity="0.33"/><stop offset="0.43" stop-color="#f6d000" stop-opacity="0.18"/><stop offset="0.53" stop-color="#fbd700" stop-opacity="0.08"/><stop offset="0.63" stop-color="#fedc00" stop-opacity="0.02"/><stop offset="0.73" stop-color="#fd0" stop-opacity="0"/></linearGradient></defs><title>novo-cool</title><g class="cls-1"><g id="Layer_1" data-name="Layer 1"><g class="cls-5"><g class="cls-6"><g class="cls-7"><g class="cls-8"><g class="cls-9"><rect class="cls-10" x="-121.67" y="-288.07" width="255.81" height="255.84" transform="translate(123.46 -50.86) rotate(-49.24)"/></g></g></g></g></g><path class="cls-11" d="M49.46,108.92V99.14c0-1.26-.53-2.65-2.86-2.65A5.7,5.7,0,0,0,44,97v12H41.8V96a11.35,11.35,0,0,1,5-1c3.79,0,4.9,2.1,4.9,4v9.83H49.46Z"/><path class="cls-11" d="M59.6,109.17c-3.72,0-5.33-3.06-5.33-7.05S55.91,95,59.57,95s5.33,3,5.33,7.08S63.29,109.17,59.6,109.17Zm0-12.72c-2.6,0-3.11,2.91-3.11,5.66s0.55,5.51,3.11,5.51,3.08-2.78,3.08-5.51S62.2,96.46,59.6,96.46Z"/><path class="cls-11" d="M72.67,108.92h-2L66.15,95.29h2.38l2.86,9.76a9.85,9.85,0,0,1,.35,1.67h0a8.67,8.67,0,0,1,.33-1.67L75,95.29h2.07Z"/><path class="cls-11" d="M83.59,109.17c-3.72,0-5.33-3.06-5.33-7.05S79.9,95,83.57,95s5.33,3,5.33,7.08S87.28,109.17,83.59,109.17Zm0-12.72c-2.6,0-3.11,2.91-3.11,5.66s0.56,5.51,3.11,5.51,3.08-2.78,3.08-5.51S86.2,96.46,83.59,96.46Z"/><path class="cls-11" d="M100.48,109.17c-2.86,0-5-2.76-5-7.05s2-7.08,5.06-7.08a4.31,4.31,0,0,1,2.83.86l-0.38.86a3.53,3.53,0,0,0-2.25-.71c-2.83,0-3.87,2.58-3.87,6,0,3.54,1.29,6.09,3.79,6.09a3.77,3.77,0,0,0,2.3-.73l0.4,0.93A4.58,4.58,0,0,1,100.48,109.17Z"/><path class="cls-11" d="M106.75,92.39a0.91,0.91,0,1,1,.91-0.91A0.91,0.91,0,0,1,106.75,92.39Zm-0.68,16.53V95.29h1.36v13.63h-1.36Z"/><path class="cls-11" d="M118.68,108.92V99c0-1.42-.56-3-3.26-3a6.67,6.67,0,0,0-3,.56v12.39H111V96a9.45,9.45,0,0,1,4.6-1c3.52,0,4.42,2.22,4.42,3.89v10h-1.36Z"/><path class="cls-11" d="M124.19,102.7c0.2,3.62,1.87,5.41,4.58,5.41a6.31,6.31,0,0,0,3.26-.81l0.43,1a7.47,7.47,0,0,1-3.71.88c-3.29,0-5.84-2-5.84-7.1,0-4.8,2.3-7,5.16-7s4.88,1.85,4.88,6.37ZM128,96.05c-2.17,0-3.87,1.67-3.87,5.81l7.43-1.14C131.6,97.32,130.23,96.05,128,96.05Z"/><path class="cls-11" d="M151.14,108.92V99a2.7,2.7,0,0,0-3-3,4.21,4.21,0,0,0-3.31,1.49v11.43h-1.36V98.86c0-1.72-1.16-2.88-3.46-2.88a5.94,5.94,0,0,0-2.86.56v12.39h-1.37V96a8.16,8.16,0,0,1,4.32-1,4.64,4.64,0,0,1,4.1,1.77,5.42,5.42,0,0,1,4.1-1.77c3.26,0,4.2,2.25,4.2,3.89v10h-1.36Z"/><path class="cls-11" d="M160,109.17c-3.34,0-4.78-1.59-4.78-3.89,0-3.64,3.34-4.75,7.61-5.18V99.16c0-2.45-1.44-3.13-3.31-3.13a6.5,6.5,0,0,0-3.16.88L156,96a7.9,7.9,0,0,1,3.69-1c2.27,0,4.45,1,4.45,4.15v9A8.27,8.27,0,0,1,160,109.17Zm2.83-8.27c-4,.53-6.27,1.32-6.27,4.37,0,2.17,1.36,3.06,3.62,3.06a6,6,0,0,0,2.65-.56v-6.88Z"/><path class="cls-11" d="M169.92,109.12a5.56,5.56,0,0,1-3.26-.91l0.41-1a4.47,4.47,0,0,0,2.78.81,2.77,2.77,0,0,0,3-2.78c0-1.64-.89-2.33-2.53-2.93-2.73-1-3.24-2.43-3.24-3.82A3.58,3.58,0,0,1,170.86,95a4.84,4.84,0,0,1,2.86.91l-0.41.88a4,4,0,0,0-2.38-.81,2.44,2.44,0,0,0-2.63,2.53c0,1.52,1.09,2.2,2.53,2.73,2.68,1,3.34,2.43,3.34,4A4.09,4.09,0,0,1,169.92,109.12Z"/><path class="cls-12" d="M5.28,78.55C5,83,10.51,82,12.83,80.61a13.59,13.59,0,0,0,5.68-6.8,29.7,29.7,0,0,0,1.23-8.49c0.16-4.22.15-12.47,0.09-16.69,2.93,3.78,4.62,11.2,4.62,11.2,0.09,0.33.18,0.65,0.27,1,1.1,3.85,3.65,7.36,8.11,6.35,7.06-1.58,7.34-10.94,8.5-16.58a53.16,53.16,0,0,1,1.8-6.81A38.14,38.14,0,0,1,45,39.33a30,30,0,0,1,2-3.46c4.25-6.3,10.78-11.51,18.43-12.42,5.63-.67,11.11,0,15.77,3.4a21.46,21.46,0,0,1,3.23,2.92,16,16,0,0,1,3.16,5.73A33,33,0,0,1,82.77,35c-5.32-.91-8.47-3.73-12.84-6.47C65.41,25.75,59,31,55.71,33.86c0,0-7.78,7.32-8.47,18.33a29.57,29.57,0,0,0,5.21,19.12,26.23,26.23,0,0,0,11,8.75,30.2,30.2,0,0,0,11.14,2.26c12.83,0,28-11.62,28.59-36.41,0,0,3.07-1.19,6-2.71-0.33,1.92-.57,4-0.77,5.9-0.7,6.67-1.55,14.41-1.87,21.09a31.08,31.08,0,0,0,.29,8.48,4.71,4.71,0,0,0,.86,1.87,4,4,0,0,0,3.31,1.26s5.65,0.68,16.44-16c2.35-3.63,5.61-8.13,8.15-11.62,0.72-1,1.41-2,2.17-3,1-1.27,1.92-2.54,2.9-3.79,2.28-2.91,4.62-5.79,7.12-8.53,0.45-.5.91-1,1.38-1.48l0,0,0.15-.16c0.93-.93,1.9-1.84,2.88-2.73s2-1.72,3-2.55c0.47-.38.94-0.74,1.41-1.11l0.9-.63c1-.72,2.11-1.38,3.2-2,0.53-.32,1.08-0.62,1.63-0.92l0.85-.43a42.78,42.78,0,0,1,6.54-2.4,32.42,32.42,0,0,1,15.33-.3c10.26,2.26,17.17,13.24,15.88,23.68a24.29,24.29,0,0,1-11.64,17.57c-5.6,3.2-15.38,4.34-19.91-3s1.93-16.07,1.93-16.07c0.7-1.09,1.47-2.14,2.25-3.17,1.92-2.57,4.47-5.68,2.9-9.11-2-4.43-7.74-.69-10,1.29A36.6,36.6,0,0,0,162.06,40a33.33,33.33,0,0,0-3.9,6.12A32.14,32.14,0,0,0,154.91,58a32.87,32.87,0,0,0,.24,6.93,22.73,22.73,0,0,0,6.28,13.05c3.79,3.74,9.28,4.66,14.38,4.3a36.83,36.83,0,0,0,16.95-5.91,55.89,55.89,0,0,0,15.47-14.6,41.21,41.21,0,0,0,3.1-5.16A41.48,41.48,0,0,0,216,38.44c0-9.68-4.18-20-12.6-25.41-7.11-4.56-15.51-5.56-23.79-4.63a51.87,51.87,0,0,0-6.69,1.23c-24,6-43.58,31.66-49.7,40.48-0.5.69-.74,1.09-1.33,1a1,1,0,0,1-.6-1.13C121.94,39,127,28,127,28c0.18-.45.26-0.61,0.46-1l0.13-.29c0.41-.88.85-1.74,1.27-2.62a22.23,22.23,0,0,0,2-6.52c0.36-2.72-.66-5.37-3.91-5.14-5,.37-7.54,5.73-10.2,9.71-3.34,5-9.31,10-14.43,11.49C95.59,7.32,72.06,8.28,72.06,8.28,41.06,8.28,32.23,43,32.23,43A75.27,75.27,0,0,0,15.07,14.43a5.56,5.56,0,0,0-5.65-1.66c-3,.88-5.53,3.46-7.17,6.09C0.43,21.8-.82,24.16.64,27.73,0.64,27.73,7.22,42,5.28,78.55ZM89.43,51.93a24,24,0,0,1-2.61,8.45,10.91,10.91,0,0,1-1.32,1.86,11.69,11.69,0,0,1-5.91,3.52,11.13,11.13,0,0,1-1.95.29,11.33,11.33,0,0,1-4.2-.49,15.81,15.81,0,0,1-6-3.65A19.34,19.34,0,0,1,63.67,57a24.1,24.1,0,0,1-1.93-5.41,19.77,19.77,0,0,1-.46-6.14c0-.08,0-0.16,0-0.23,7.32,6,18.76,6.28,28.24,4.84A16.38,16.38,0,0,1,89.43,51.93Z"/><path class="cls-13" d="M87.59,35.53a42.43,42.43,0,0,0,14.74-1.95C95.58,7.32,72.06,8.28,72.06,8.28,41.06,8.28,32.23,43,32.23,43A75.27,75.27,0,0,0,15.07,14.43a5.56,5.56,0,0,0-5.65-1.66c-3,.88-5.53,3.46-7.17,6.09C0.43,21.8-.82,24.16.64,27.73c0,0,6.58,14.27,4.64,50.82C5,83,10.51,82,12.83,80.61a13.59,13.59,0,0,0,5.68-6.8,29.7,29.7,0,0,0,1.23-8.49c0.16-4.22.15-12.47,0.09-16.69,2.93,3.78,4.62,11.2,4.62,11.2,0.09,0.33.18,0.65,0.27,1,1.1,3.85,3.65,7.36,8.11,6.35,7.06-1.58,7.34-10.94,8.5-16.58a53.16,53.16,0,0,1,1.8-6.81A38.14,38.14,0,0,1,45,39.33a30,30,0,0,1,2-3.46c4.25-6.3,10.78-11.51,18.43-12.42,5.63-.67,11.11,0,15.77,3.4a21.46,21.46,0,0,1,3.23,2.92,16,16,0,0,1,3.16,5.73v0Z"/><g class="cls-14"><path class="cls-15" d="M106.62,70.18a31.08,31.08,0,0,0,.29,8.48,4.71,4.71,0,0,0,.86,1.87,4,4,0,0,0,3.31,1.26s5.65,0.68,16.44-16c2.35-3.63,5.61-8.13,8.15-11.62,0.72-1,1.41-2,2.17-3,1-1.27,1.92-2.54,2.9-3.79,2.28-2.91,4.62-5.79,7.12-8.53,0.45-.5.91-1,1.38-1.48l0,0,0.15-.16c0.93-.93,1.9-1.84,2.88-2.73s2-1.72,3-2.55c0.47-.38.94-0.74,1.41-1.11l0.9-.63c1-.72,2.11-1.38,3.2-2,0.53-.32,1.08-0.62,1.63-0.92l0.85-.43a42.78,42.78,0,0,1,6.54-2.4,32.42,32.42,0,0,1,15.33-.3c10.26,2.26,17.17,13.24,15.88,23.68a24.29,24.29,0,0,1-11.64,17.57c-5.6,3.2-15.38,4.34-19.91-3s1.93-16.07,1.93-16.07c0.7-1.09,1.47-2.14,2.25-3.17,1.92-2.57,4.47-5.68,2.9-9.11-2-4.43-7.74-.69-10,1.29A36.6,36.6,0,0,0,162.06,40a33.33,33.33,0,0,0-3.9,6.12A32.14,32.14,0,0,0,154.91,58a32.87,32.87,0,0,0,.24,6.93,22.73,22.73,0,0,0,6.28,13.05c3.79,3.74,9.28,4.66,14.38,4.3a36.83,36.83,0,0,0,16.95-5.91,55.89,55.89,0,0,0,15.47-14.6,41.21,41.21,0,0,0,3.1-5.16A41.48,41.48,0,0,0,216,38.44c0-9.68-4.18-20-12.6-25.41-7.11-4.56-15.51-5.56-23.79-4.63a51.87,51.87,0,0,0-6.69,1.23c-24,6-43.58,31.66-49.7,40.48-0.5.69-.74,1.09-1.33,1a1,1,0,0,1-.6-1.13C121.94,39,127,28,127,28c0.18-.45.26-0.61,0.46-1l0.13-.29c0.41-.88.38-0.76,0.79-1.64,0.08-.18.14-0.28,0.22-0.46-5,10.6-19.33,18.6-19.33,18.6-0.33,1.92-.57,4-0.77,5.9C107.78,55.75,106.93,63.49,106.62,70.18Z"/></g><path class="cls-16" d="M85.5,62.25a10.91,10.91,0,0,0,1.32-1.86,24,24,0,0,0,2.61-8.45A16.38,16.38,0,0,0,89.54,50a78.47,78.47,0,0,0,13.69-4.15,47,47,0,0,1-4.19,19.22Z"/><path class="cls-11" d="M215.1,10v4h-0.9V10h-1.27V9.28h3.48l-0.09.71H215.1Z"/><path class="cls-11" d="M220.62,14l-0.15-2.35c0-.57,0-1.2,0-1.45h0l-0.87,3.31h-0.86l-0.91-3.31h0a12.92,12.92,0,0,1,0,1.53L217.61,14h-0.87l0.37-4.68h1.15l0.85,3.27h0L220,9.28h1.16L221.49,14h-0.87Z"/></g></g></svg>