<?xml version="1.0" encoding="UTF-8"?>
<svg id="Layer_1" data-name="Layer 1" xmlns="http://www.w3.org/2000/svg" viewBox="0 0 980.52 626.85">
  <defs>
    <style>
      .cls-1 {
        fill: #2b58a8;
      }

      .cls-2 {
        fill: #0066b3;
      }

      .cls-3 {
        fill: #a8a8ab;
      }

      .cls-4 {
        fill: #fff;
      }
    </style>
  </defs>
  <g>
    <g>
      <polygon class="cls-3" points="834.31 89.38 618.35 147.24 602.06 487.83 691.44 556.45 691.45 200.76 907.42 142.89 834.31 89.38"/>
      <polygon class="cls-2" points="980.52 196.41 907.42 142.89 907.41 231.82 780.42 265.84 780.42 310.28 875.65 284.77 875.65 373.69 780.41 399.21 780.41 399.25 780.4 532.62 691.44 556.45 764.54 609.97 853.51 586.13 853.52 452.73 948.75 427.21 948.75 338.29 904.32 305.75 980.52 285.33 980.52 196.41"/>
      <polygon class="cls-4" points="907.42 142.9 907.41 231.82 780.42 265.85 780.41 310.28 875.65 284.77 875.64 373.69 780.41 399.21 780.4 532.61 691.43 556.45 691.45 200.76 907.42 142.9"/>
    </g>
    <g>
      <polygon class="cls-3" points="545.25 0 455.88 23.95 455.88 81.37 398.46 39.33 309.14 63.27 309.12 420.56 382.56 474.32 382.58 117.03 471.9 93.09 471.89 227.06 529.35 211.66 529.36 77.7 618.68 53.76 545.25 0"/>
      <polygon class="cls-2" points="618.68 53.76 618.67 411.06 529.35 434.99 529.35 300.98 471.89 316.38 471.88 392.97 471.88 450.39 382.56 474.32 456 528.08 545.32 504.15 545.32 446.68 602.78 488.75 692.1 464.82 692.12 107.52 618.68 53.76"/>
      <polygon class="cls-4" points="618.68 53.76 618.67 411.06 529.34 434.99 529.35 300.98 471.89 316.38 471.88 450.39 382.56 474.32 382.58 117.03 471.9 93.1 471.89 227.06 529.36 211.66 529.36 77.7 618.68 53.76"/>
    </g>
    <g>
      <path class="cls-3" d="M232.3,137.45l-24.48-17.92c-.24-.18-.48-.35-.72-.52-.2-.14-.41-.28-.62-.41-.35-.24-.7-.48-1.05-.71-.33-.22-.66-.43-.99-.64-.36-.23-.72-.45-1.08-.66-.14-.09-.28-.18-.42-.26-.17-.11-.36-.2-.53-.3-.46-.26-.92-.52-1.39-.77-.17-.09-.34-.19-.51-.28-.14-.07-.3-.14-.44-.22-.48-.25-.96-.48-1.45-.72-.21-.09-.41-.21-.62-.31-.12-.05-.24-.11-.37-.16-.34-.15-.67-.31-1.01-.45-.26-.12-.51-.24-.78-.34-.16-.07-.32-.13-.48-.19-.26-.1-.51-.2-.77-.31-.22-.08-.43-.17-.64-.26-.26-.1-.53-.19-.8-.29-.25-.1-.5-.19-.76-.28-.12-.04-.25-.09-.37-.14-.43-.15-.85-.28-1.29-.42-.18-.06-.36-.13-.55-.19-.05,0-.09-.03-.13-.04-.56-.18-1.12-.35-1.7-.51-.11-.04-.22-.06-.32-.09-.18-.05-.36-.1-.53-.15-.28-.08-.56-.16-.84-.23-.33-.09-.66-.17-.99-.25-.16-.04-.32-.08-.48-.13-.09-.02-.16-.04-.25-.06-.58-.14-1.16-.27-1.75-.39-.09-.02-.16-.03-.25-.06-.15-.03-.31-.06-.46-.09-.32-.07-.65-.13-.97-.2-.36-.07-.71-.13-1.06-.2-.13-.02-.26-.04-.39-.07-.07-.02-.13-.02-.2-.04-.55-.1-1.1-.18-1.66-.27-.15-.02-.3-.04-.45-.06-.17-.03-.35-.05-.52-.08-.24-.03-.48-.07-.72-.1-.55-.08-1.1-.14-1.66-.21h-.03s0,0,0,0c-.57-.07-1.13-.12-1.7-.18-.26-.02-.51-.05-.77-.06-.16-.01-.33-.03-.5-.04-.14-.01-.29-.03-.43-.04-.57-.05-1.14-.08-1.72-.12-.1,0-.2,0-.29-.01-.15,0-.3-.01-.45-.02-.34-.02-.66-.04-1.01-.05-.45-.02-.9-.03-1.35-.04-.09,0-.18,0-.28,0h-.12c-.6-.02-1.2-.04-1.8-.04-.21,0-.42,0-.63,0-.19,0-.38,0-.57,0-.2,0-.41,0-.62,0-.61,0-1.23,0-1.84.02-.05,0-.09,0-.13,0-.1,0-.2,0-.3,0-.48.01-.95.02-1.43.04-.34.01-.68.03-1.02.04-.18,0-.35.01-.53.02-.11,0-.23,0-.35.01-.66.03-1.32.06-1.99.11-.11,0-.22.01-.33.02-.18,0-.37.02-.57.04-.37.02-.74.05-1.11.07-.42.03-.84.07-1.26.11-.17.01-.34.02-.51.04-.09,0-.17.01-.26.02-.68.06-1.36.13-2.04.2-.14.02-.29.04-.43.05-.22.03-.45.05-.68.08-.35.04-.69.07-1.05.12-.42.05-.85.11-1.28.16-.21.02-.43.05-.64.08-.11,0-.21.02-.32.04-.74.09-1.49.2-2.25.31-.09.01-.19.03-.28.04-.21.03-.42.06-.63.1-.45.07-.9.13-1.35.2-.33.05-.66.11-.99.16-.28.05-.55.09-.82.14-.18.03-.36.06-.55.09-.73.13-1.47.26-2.2.4-.09.01-.18.03-.27.05-.01,0-.03,0-.05,0-.85.16-1.69.32-2.54.49-.14.03-.29.06-.43.09-.3.06-.59.13-.89.19l-1.24.25c-.32.07-.65.14-.97.21-.35.07-.7.15-1.05.23-.22.04-.44.09-.66.14-.52.12-1.04.24-1.56.37-.34.08-.67.15-1.01.23-.1.03-.2.05-.3.07-.96.23-1.92.47-2.89.72,0,0-.01,0-.01,0-.06.02-.11.03-.17.04-.91.23-1.81.47-2.74.71L.02,145.16l-.02,357.29,73.44,53.76V198.92s118.07-31.63,118.07-31.63c1.1-.29,2.19-.58,3.27-.85.54-.14,1.08-.28,1.62-.41.35-.09.69-.17,1.03-.25,2.13-.52,4.24-.99,6.32-1.43.57-.12,1.14-.24,1.7-.35,4.09-.83,8.09-1.51,11.99-2.03.44-.07.87-.12,1.31-.17,4.37-.56,8.6-.92,12.71-1.08.47-.02.93-.03,1.39-.04.55-.01,1.08-.03,1.61-.04.47,0,.93-.01,1.39-.01.5,0,.99,0,1.49,0,.47,0,.95,0,1.41.02.51,0,1.02.02,1.52.04.97.03,1.93.07,2.88.14.95.05,1.9.12,2.83.21.05,0,.09,0,.14,0,1.35.12,2.7.27,4.01.45.91.12,1.81.25,2.7.41.45.07.9.15,1.34.23.44.08.87.16,1.31.25,1.31.26,2.6.55,3.87.88.42.1.85.21,1.26.33.38.1.76.2,1.12.32.46.13.91.27,1.37.4.76.24,1.51.48,2.24.74.06.02.12.04.18.06.4.14.8.28,1.2.44.79.29,1.57.6,2.34.92.39.15.77.32,1.15.49.76.33,1.52.68,2.26,1.05,2.97,1.45,5.78,3.13,8.43,5.05.06.04.12.08.18.13.03.02.07.04.11.07l-48.9-35.8Z"/>
      <path class="cls-2" d="M382.94,299.91c0-.6-.01-1.19-.02-1.78,0-.2,0-.39,0-.58v-.2c-.02-.84-.04-1.68-.07-2.51,0-.1-.01-.21-.01-.31-.01-.25-.02-.49-.03-.74-.02-.47-.03-.95-.05-1.41-.02-.28-.03-.56-.05-.85-.02-.3-.03-.6-.05-.89-.01-.23-.02-.46-.04-.69-.03-.61-.08-1.21-.12-1.81-.01-.12-.02-.24-.03-.37,0-.04,0-.08,0-.08-.06-.79-.13-1.54-.19-2.28-.01-.15-.03-.29-.04-.43-.03-.24-.05-.48-.07-.72-.03-.35-.07-.71-.11-1.06-.04-.37-.09-.73-.12-1.1-.03-.23-.05-.45-.08-.68-.01-.13-.03-.26-.04-.38-.09-.71-.18-1.43-.28-2.13l-.02-.13c-.02-.14-.04-.28-.06-.42-.07-.5-.14-1.01-.22-1.5-.03-.24-.07-.47-.11-.7-.04-.24-.08-.48-.12-.71-.03-.21-.07-.42-.1-.62-.09-.57-.2-1.12-.3-1.68l-.03-.16c-.02-.1-.02-.13-.02-.13-.13-.67-.26-1.33-.39-1.97-.03-.14-.06-.29-.09-.43-.05-.22-.09-.44-.14-.65-.06-.28-.12-.56-.18-.84-.08-.35-.16-.69-.24-1.03-.05-.2-.1-.41-.14-.62-.03-.1-.05-.2-.07-.29-.15-.64-.32-1.28-.48-1.91-.01-.04-.03-.08-.04-.13-.03-.14-.07-.27-.11-.41-.12-.44-.24-.89-.36-1.33-.06-.19-.12-.38-.17-.57-.07-.22-.13-.44-.2-.66-.06-.2-.12-.4-.18-.6-.12-.38-.24-.76-.36-1.14-.06-.17-.11-.36-.17-.53-.02-.07-.04-.13-.06-.19-.22-.65-.44-1.3-.66-1.93-.01-.03-.02-.06-.03-.08-.05-.14-.11-.28-.16-.42-.16-.46-.34-.92-.51-1.38-.05-.12-.09-.23-.14-.34-.09-.24-.18-.47-.28-.7-.11-.27-.2-.54-.32-.8-.09-.21-.17-.41-.26-.62-.11-.25-.21-.5-.32-.74-.07-.15-.13-.31-.2-.47-.1-.24-.22-.47-.33-.71-.15-.35-.31-.69-.47-1.02-.06-.13-.11-.26-.17-.38-.12-.24-.24-.48-.36-.73-.16-.33-.33-.66-.49-.99-.06-.12-.11-.23-.17-.34-.13-.25-.26-.48-.39-.72-.17-.32-.34-.64-.52-.96-.05-.1-.11-.21-.16-.3-.1-.18-.2-.34-.3-.51-.29-.5-.57-.99-.87-1.48-.09-.13-.16-.28-.24-.41-.07-.11-.14-.21-.22-.32-.44-.71-.89-1.4-1.36-2.08-.05-.08-.1-.16-.14-.23,0,0-.03-.03-.04-.05-.59-.85-1.2-1.68-1.83-2.5-.07-.09-.14-.19-.21-.29-.11-.15-.23-.28-.34-.43-.2-.25-.39-.49-.59-.74-.24-.3-.49-.6-.74-.89-.2-.23-.4-.48-.61-.7-.25-.29-.51-.58-.77-.87-.21-.22-.41-.45-.62-.67-.26-.28-.54-.56-.81-.84-.21-.21-.41-.43-.63-.63-.28-.28-.57-.55-.85-.82-.21-.19-.41-.39-.62-.58-.31-.28-.62-.55-.93-.82-.2-.18-.4-.36-.6-.53-.34-.3-.7-.58-1.05-.87-.18-.14-.35-.28-.52-.42-.53-.42-1.07-.82-1.61-1.23l-72.9-53.36s.08.06.11.09c1.37,1.02,2.68,2.11,3.94,3.27.01,0,.02.01.02.01.53.47,1.03.95,1.53,1.45.26.25.51.5.75.75.51.5,1,1.02,1.47,1.55.25.26.49.53.72.8.24.27.47.54.7.82.24.28.47.55.7.84.23.28.46.56.68.85.23.28.45.57.67.87.44.59.87,1.18,1.3,1.79.85,1.21,1.67,2.47,2.45,3.77.2.33.39.66.58.99.2.33.39.67.57,1.01.18.33.36.65.54.98l.03.07c.18.33.36.67.53,1.01.16.31.32.62.47.94.31.61.61,1.23.89,1.87.12.26.24.53.36.79.22.5.45,1,.66,1.53.17.4.34.81.5,1.22.34.84.67,1.7.99,2.58.43,1.19.83,2.4,1.22,3.64.11.35.22.7.33,1.06.29.96.57,1.94.83,2.95.1.36.19.73.28,1.1.12.44.22.88.33,1.33.11.44.22.88.32,1.34.17.75.34,1.51.49,2.28.05.22.09.46.14.69.08.38.15.77.22,1.16.26,1.4.51,2.83.73,4.29.12.84.25,1.69.36,2.55.15,1.12.28,2.26.41,3.43.04.38.08.77.12,1.16.07.64.12,1.29.18,1.94.04.42.07.85.11,1.27.03.35.05.71.08,1.07.04.57.08,1.14.11,1.73.03.45.05.89.08,1.35.07,1.3.12,2.62.16,3.96,0,.32.02.64.03.96.02.89.03,1.79.05,2.69,0,.62,0,1.24,0,1.87v44.63c0,79.76-47.86,124.49-118.01,143.29l-28.74,7.7v89.32l-89.32,23.93,73.44,53.76,89.32-23.93v-89.32l28.74-7.7c1.14-.31,2.27-.62,3.41-.94.37-.11.75-.22,1.12-.33.75-.21,1.51-.44,2.25-.66.44-.13.88-.27,1.32-.41.68-.2,1.35-.41,2.02-.62.46-.14.93-.29,1.39-.44.64-.2,1.28-.41,1.91-.62.48-.16.95-.32,1.43-.48.61-.21,1.23-.42,1.85-.63.47-.17.95-.33,1.43-.5.6-.22,1.2-.43,1.81-.66.47-.17.95-.35,1.41-.52.6-.22,1.19-.44,1.79-.68.46-.18.93-.35,1.39-.54.59-.23,1.18-.47,1.78-.71.45-.18.91-.36,1.35-.55.6-.25,1.2-.5,1.79-.75.43-.18.87-.36,1.3-.55.62-.26,1.23-.53,1.84-.81.4-.17.81-.35,1.21-.53.67-.3,1.33-.61,1.99-.92.34-.16.68-.31,1.01-.47.95-.45,1.9-.91,2.84-1.37.04-.02.08-.04.12-.06.98-.49,1.95-.98,2.91-1.48.32-.16.63-.33.95-.5.64-.34,1.29-.68,1.92-1.02.37-.21.75-.41,1.12-.61.57-.32,1.14-.64,1.71-.95.39-.22.78-.45,1.18-.68.54-.31,1.07-.62,1.6-.94.4-.24.8-.48,1.19-.71.52-.32,1.04-.63,1.55-.95.39-.24.79-.49,1.18-.74.51-.31,1.01-.64,1.51-.96.39-.26.79-.51,1.18-.78.49-.32.99-.65,1.47-.99.39-.26.77-.52,1.15-.78.49-.34.98-.68,1.46-1.02.37-.26.74-.53,1.11-.79.49-.36.98-.72,1.47-1.08.36-.27.71-.53,1.06-.79.5-.38.99-.76,1.49-1.14.32-.26.65-.5.98-.76.54-.43,1.07-.86,1.6-1.3.27-.22.55-.44.81-.65.76-.62,1.5-1.26,2.24-1.89.05-.04.09-.08.13-.11.78-.68,1.55-1.36,2.31-2.05.25-.22.49-.45.74-.68.51-.46,1.02-.94,1.53-1.41.29-.27.58-.56.87-.84.45-.44.89-.86,1.33-1.3.31-.31.6-.61.91-.91.42-.43.83-.85,1.25-1.28.31-.32.61-.64.91-.96.39-.43.8-.85,1.19-1.29.3-.33.6-.66.9-1,.38-.43.77-.86,1.14-1.29.3-.34.59-.68.88-1.02.37-.44.75-.88,1.12-1.33.28-.35.57-.69.85-1.04.37-.45.73-.91,1.08-1.36.18-.22.36-.45.54-.67.07-.1.14-.19.21-.29.81-1.05,1.6-2.11,2.38-3.18.05-.07.09-.12.13-.18.14-.2.28-.4.43-.61.46-.65.91-1.3,1.36-1.96.1-.15.21-.29.31-.44.13-.19.26-.39.39-.59.36-.54.72-1.08,1.06-1.62.14-.21.28-.42.41-.62.13-.2.25-.4.37-.61.18-.29.36-.57.54-.85.13-.2.26-.41.38-.62.19-.31.37-.63.57-.95.16-.27.32-.54.49-.81.07-.12.14-.23.2-.34.3-.52.6-1.05.89-1.57.09-.16.18-.32.27-.47.02-.03.04-.06.05-.09.37-.67.74-1.33,1.1-2.02.05-.09.1-.19.15-.29.09-.16.16-.32.25-.48.17-.32.34-.64.51-.96.18-.36.37-.74.55-1.11.07-.14.14-.28.22-.43.03-.07.07-.14.11-.22.29-.59.57-1.18.85-1.78.06-.13.12-.26.18-.38.09-.18.17-.37.26-.56.13-.28.26-.57.39-.86.21-.47.42-.94.63-1.42.03-.07.07-.14.1-.22.01-.03.03-.06.03-.06.24-.56.47-1.1.7-1.64.11-.27.22-.54.34-.81.06-.15.12-.29.18-.44.05-.13.11-.25.16-.37.22-.54.43-1.1.65-1.65.06-.15.12-.31.18-.46.06-.16.12-.31.18-.47.09-.24.18-.48.28-.72.21-.56.41-1.12.61-1.68.02-.06.04-.12.06-.17.03-.09.07-.18.1-.28.14-.39.28-.78.41-1.17.18-.53.36-1.06.54-1.6v-.02c.18-.54.36-1.08.53-1.63.12-.4.24-.79.37-1.19.03-.09.06-.19.09-.28.02-.06.04-.12.05-.18.17-.55.33-1.1.49-1.66.09-.3.16-.6.25-.9.04-.14.08-.26.11-.4.04-.13.07-.25.11-.38.16-.56.31-1.12.45-1.69.06-.22.11-.44.17-.66.04-.15.08-.3.11-.45.05-.2.11-.4.15-.59.14-.57.28-1.14.42-1.72.03-.15.07-.29.1-.44.03-.15.07-.3.11-.45.06-.28.13-.56.19-.85.13-.58.26-1.16.38-1.75,0,0,.03-.17.05-.24.03-.12.05-.24.07-.35.08-.4.16-.79.24-1.17.12-.62.24-1.24.36-1.85h0s0,0,0,0c.11-.62.22-1.25.33-1.88.07-.38.13-.77.2-1.16.02-.14.05-.28.07-.43.02-.1.04-.2.05-.3.1-.63.2-1.27.29-1.91.04-.24.07-.48.1-.73.03-.18.05-.36.08-.54.03-.22.06-.44.09-.66.09-.67.17-1.33.26-2,.01-.11.03-.22.03-.22.03-.27.05-.43.07-.6.05-.43.11-.86.15-1.29.06-.52.11-1.04.16-1.56,0-.13.03-.25.03-.38,0-.06.01-.12.01-.12.08-.78.14-1.49.2-2.2.02-.25.04-.5.06-.75.01-.22.03-.45.05-.67.02-.25.04-.5.06-.75.05-.74.1-1.48.14-2.23v-.15c.01-.14.02-.29.03-.43.04-.62.07-1.24.1-1.86.01-.32.03-.64.04-.96.01-.28.02-.55.03-.82,0-.23.02-.45.03-.66.03-.82.05-1.65.07-2.48v-.27c.02-.8.03-1.51.03-2.23,0-.45,0-.9,0-1.36v-44.64c0-.4,0-.8,0-1.19ZM220.19,315.9v-44.63c0-15.95-12.74-18.93-25.51-15.51l-31.91,8.55v89.32s31.9-8.55,31.9-8.55c12.78-3.42,25.52-13.23,25.52-29.18Z"/>
      <path class="cls-4" d="M191.51,167.29c70.15-18.8,118.01.28,118,80.05v44.64c0,79.76-47.86,124.49-118.01,143.29l-28.73,7.7v89.32s-89.33,23.93-89.33,23.93l.02-357.29,118.05-31.63ZM220.19,315.91v-44.64c0-15.95-12.73-18.93-25.51-15.51l-31.9,8.55v89.32s31.9-8.55,31.9-8.55c12.78-3.42,25.51-13.23,25.51-29.18"/>
    </g>
  </g>
  <g>
    <path class="cls-1" d="M753.85,511.83l-32.56,8.52v-12.42c0-5.82,4.69-8.82,9.25-10.02,2.78-.73,5.9-.81,7.73,1.01,1.52,1.51,2,3.95,1.95,6.3v4.08l13.63-3.57v6.08ZM735.45,510.57v-3.26c0-2.65-1.13-4.13-5.08-3.1-3.73.98-4.3,2.6-4.3,6.03v2.78l9.38-2.46Z"/>
    <path class="cls-1" d="M753.85,485.09l-32.56,8.52v-6.08l12.89-3.38v-8.51l-12.89,3.38v-6.08l32.56-8.52v6.08l-14.89,3.9v8.51l14.89-3.9v6.08Z"/>
    <path class="cls-1" d="M753.85,458.52l-32.56.75v-8.2l32.56-15.9v6.51l-8.25,3.77v7.12l8.25-.55v6.51ZM740.83,452.85v-5.21l-9.25,4.07c-1.52.7-3,1.22-4.51,1.79-.74.24-1.48.52-2.17.79v.09c.69-.09,1.43-.2,2.17-.35,1.52-.22,2.99-.48,4.51-.57l9.25-.6Z"/>
    <path class="cls-1" d="M739.83,426.89l14.02-3.67v6.08l-32.56,8.52v-11.5c0-5.25,1.82-9.72,7.81-11.29,3.56-.93,7.29-1,7.86,2.93l.09-.02c.48-3.73,2.78-5.42,5.9-6.23,1.35-.35,9.33-2.27,10.29-4l.61-.16v6.69c-2.08,1.28-6.08,2.2-8.25,2.81-2,.57-4.73,1.24-5.34,3.48-.48,1.77-.43,3.54-.43,5.28v1.09ZM735.06,428.14v-4.78c-.13-1.96-1.43-3.18-4.69-2.33-3.65.96-4.25,2.63-4.3,4.95v4.51l8.98-2.35Z"/>
    <path class="cls-1" d="M731.19,393.6c-2.91.72-5.77,1.73-5.77,5.07,0,2.04.83,3.13,3.04,2.55,2.48-.65,3.43-2.46,4.65-4.69,1.26-2.33,3.69-6.65,5.34-8.78,2.04-2.62,4-3.78,6.82-4.52,6.16-1.61,9.38,1.63,9.38,7.57,0,7.29-4.08,10.97-9.9,12.49l-2.39.62v-6.08l1.91-.5c3.17-.7,5.47-2.26,5.47-5.25,0-2.56-1.35-3.42-3.82-2.78-1.91.5-3.21,1.71-4.3,3.56-2.48,3.82-4.25,8.23-7.51,11.56-1.47,1.38-3.26,2.42-4.99,2.87-5.56,1.46-8.59-.88-8.59-7.3,0-9.68,7.47-11.37,10.68-12.26v5.86Z"/>
    <path class="cls-1" d="M753.85,359.66l-32.56,8.52v-17.23l4.78-1.25v11.16l8.25-2.16v-10.46l4.77-1.25v10.46l14.76-3.86v6.08Z"/>
    <path class="cls-1" d="M753.85,335.52l-32.56,8.52v-6.08l32.56-8.52v6.08Z"/>
    <path class="cls-1" d="M753.85,320.89l-32.56,8.52v-6.08l27.78-7.27v-11.29l4.77-1.25v17.36Z"/>
    <path class="cls-1" d="M753.85,290.54v6.08l-32.56,8.52v-9.68l15.11-7.21c2.48-1.17,4.99-2.18,7.51-3.1v-.09c-3.21.54-5.38.89-7.51,1.01l-15.11.7v-9.64l32.56-8.52v6.08l-10.24,2.68c-6.47,1.69-12.93,3.26-19.4,4.56v.09l29.65-1.25v3.69l-29.65,14.15v.22c6.47-2.09,12.94-3.91,19.4-5.6l10.24-2.68Z"/>
  </g>
  <g>
    <path class="cls-1" d="M745.56,255.62l-19.07,5v-3.56l16.28-4.26v-6.61l2.8-.73v10.17Z"/>
    <path class="cls-1" d="M745.56,241.38l-19.07,5v-3.56l16.28-4.26v-6.61l2.8-.73v10.17Z"/>
    <path class="cls-1" d="M738.77,217.63c.35-.07.74-.14,1.09-.21,3.48-.74,6.15-.26,6.15,3.7,0,5.85-3.71,7.2-8.8,8.53l-2.72.71c-4.86,1.12-8.47,1.68-8.47-4.01.05-3.19,1.68-5.4,4.93-6.5.48-.18.97-.35,1.45-.46v3.51c-1.22.47-3.51.94-3.51,2.7,0,2.8,3.33,1.69,4.81,1.31l5.29-1.39c1.58-.41,4.15-1.21,4.15-3.65,0-1.96-3.15-.9-4.37-.66v-3.58Z"/>
  </g>
  <g>
    <rect class="cls-2" x="253.84" y="546.37" width="408.03" height="80.48"/>
    <g>
      <path class="cls-4" d="M295.22,578.12c.05-3.8-.28-7.53-4.49-7.53-2.58,0-4.22,1.08-4.22,3.97,0,3.23,1.97,4.48,4.38,6.06,2.52,1.64,7.18,4.81,9.32,6.97,2.63,2.66,3.45,5.21,3.45,8.89,0,8.04-5.15,12.24-12.66,12.24-9.21,0-12.49-5.32-12.49-12.92v-3.12h7.67v2.49c-.16,4.14,1.04,7.14,4.82,7.14,3.23,0,4.77-1.76,4.77-4.98,0-2.49-1.1-4.19-3.07-5.61-4-3.23-8.99-5.55-12.11-9.8-1.26-1.93-1.97-4.25-1.97-6.52,0-7.25,3.95-11.22,12.06-11.22,12.22,0,11.89,9.74,11.95,13.94h-7.4Z"/>
      <path class="cls-4" d="M321.03,607.69v-42.49h7.67v42.49h-7.67Z"/>
      <path class="cls-4" d="M365.54,565.2h7.67v42.49h-8l-5.97-15.12c-2.03-5.04-3.67-10.2-5.48-16.88h-.11c.27,3.51.6,7.82.82,12.12.22,4.25.38,8.5.38,11.9v7.99h-7.67v-42.49h7.95l5.97,15.47c1.97,4.93,3.62,9.97,5.48,16.88h.11c-.27-3.85-.55-7.99-.77-12.07-.22-4.08-.38-8.16-.38-11.95v-8.33Z"/>
      <path class="cls-4" d="M415.96,592.57c-.05.79-.11,1.64-.16,2.44-.38,7.76-2.9,13.71-11.45,13.71-12.6,0-13.43-8.27-13.43-19.6v-6.06c.33-10.82,1.15-18.86,13.43-18.86,6.85.11,10.69,3.74,11.23,10.99.11,1.08.22,2.15.16,3.23h-7.56c-.33-2.72-.05-7.82-3.84-7.82-6.03,0-5.53,7.42-5.53,10.71v11.78c0,3.51.27,9.23,5.53,9.23,4.22,0,3.73-7.02,3.89-9.74h7.73Z"/>
      <path class="cls-4" d="M432.85,607.69v-42.49h21.59v6.23h-13.92v10.71h12.82v6.23h-12.82v13.09h13.92v6.23h-21.59Z"/>
      <path class="cls-4" d="M504.05,578.23h-9.26v-5.67c5.32-.06,9.75-1.53,11.29-7.36h5.64v42.49h-7.67v-29.46Z"/>
      <path class="cls-4" d="M555.9,591.38c0,13.54-3.73,17.16-11.84,17.16-6.03,0-10.36-2.83-10.14-9.57h7.13c.05,1.42.22,3.51,3.34,3.34,4.33,0,3.89-5.38,4-7.93v-2.72c-1.26,1.36-2.47,2.83-6.03,2.83-6.52,0-9.32-4.59-9.32-13.31,0-10.65,2.52-16.15,11.4-16.15s11.56,6.17,11.45,16.15v10.2ZM544.28,571.26c-4,.06-3.56,3.91-3.56,9.35,0,3.06-.38,7.65,3.72,7.65,3.78,0,3.78-4.14,3.78-7.65.05-5.27.16-9.74-3.95-9.35Z"/>
      <path class="cls-4" d="M571.41,582.2c0-13.54,3.78-17.16,11.89-17.16,6.03,0,10.36,2.83,10.14,9.57h-7.12c-.06-1.42-.16-3.57-3.29-3.34-4.33.34-3.95,5.38-4.05,7.93v2.72c1.26-1.36,2.47-2.83,6.03-2.83,6.52,0,9.26,4.59,9.26,13.31,0,10.65-2.47,16.15-11.34,16.15s-11.62-6.17-11.51-16.15v-10.2ZM583.03,602.31c4-.06,3.56-3.91,3.56-9.35,0-3.06.38-7.65-3.73-7.65-3.78,0-3.78,4.13-3.78,7.65-.05,5.27-.16,9.74,3.95,9.35Z"/>
      <path class="cls-4" d="M629.73,565.88v26.97h3.51v6.23h-3.51v8.61h-7.67v-8.61h-13.32v-6.23l12.44-26.97h8.55ZM622.06,592.85v-17.22h-.11l-7.56,17.22h7.67Z"/>
    </g>
  </g>
</svg>